<svg width="438" height="556" viewBox="0 0 438 556" fill="none" xmlns="http://www.w3.org/2000/svg">
<path opacity="0.12" d="M117.807 134.193C134.612 149.64 126.213 198.363 107.294 217.391C93.2353 222.122 66.2296 244.294 70.676 295.131C76.2341 358.677 111.872 325.054 142.145 350.74C172.419 376.426 150.19 454.598 261.607 490.962C373.024 527.325 404.388 437.11 388 346.083C371.611 255.056 310.775 323.536 278.907 293.111C247.039 262.686 259.817 197.19 308.153 180.924C356.489 164.658 319.108 86.498 245.922 38.3246C172.735 -9.84868 101.003 118.746 117.807 134.193Z" fill="#217CE9"/>
<g opacity="0.69">
<path d="M344.072 97.0943C344.454 97.7563 344.826 98.4247 345.188 99.0994C344.531 98.6693 344.092 97.9337 344.072 97.0943Z" fill="#217CE9"/>
<path d="M330.579 80.0812C331.727 81.1588 332.841 82.2727 333.919 83.421C333.502 84.1912 332.687 84.7143 331.75 84.7143C330.389 84.7143 329.286 83.611 329.286 82.25C329.286 81.3129 329.809 80.4979 330.579 80.0812Z" fill="#217CE9"/>
<path d="M314.901 68.8117C315.575 69.1736 316.244 69.5458 316.906 69.9279C316.066 69.9083 315.331 69.469 314.901 68.8117Z" fill="#217CE9"/>
<path d="M243.094 69.9279C243.756 69.5458 244.425 69.1736 245.099 68.8117C244.669 69.469 243.934 69.9083 243.094 69.9279Z" fill="#217CE9"/>
<path d="M226.081 83.421C227.159 82.2727 228.273 81.1588 229.421 80.0812C230.191 80.4979 230.714 81.3129 230.714 82.25C230.714 83.611 229.611 84.7143 228.25 84.7143C227.313 84.7143 226.498 84.1912 226.081 83.421Z" fill="#217CE9"/>
<path d="M214.812 99.0994C215.174 98.4247 215.546 97.7563 215.928 97.0943C215.908 97.9337 215.469 98.6693 214.812 99.0994Z" fill="#217CE9"/>
<path d="M345.188 168.901C344.826 169.575 344.454 170.244 344.072 170.906C344.092 170.066 344.531 169.331 345.188 168.901Z" fill="#217CE9"/>
<path d="M333.919 184.579C333.502 183.809 332.687 183.286 331.75 183.286C330.389 183.286 329.286 184.389 329.286 185.75C329.286 186.687 329.809 187.502 330.579 187.919C331.727 186.841 332.841 185.727 333.919 184.579Z" fill="#217CE9"/>
<path d="M316.906 198.072C316.066 198.092 315.331 198.531 314.901 199.188C315.575 198.826 316.244 198.454 316.906 198.072Z" fill="#217CE9"/>
<path d="M245.099 199.188C244.669 198.531 243.934 198.092 243.094 198.072C243.756 198.454 244.425 198.826 245.099 199.188Z" fill="#217CE9"/>
<path d="M229.421 187.919C230.191 187.502 230.714 186.687 230.714 185.75C230.714 184.389 229.611 183.286 228.25 183.286C227.313 183.286 226.498 183.809 226.081 184.579C227.159 185.727 228.273 186.841 229.421 187.919Z" fill="#217CE9"/>
<path d="M215.928 170.906C215.908 170.066 215.469 169.331 214.812 168.901C215.174 169.575 215.546 170.244 215.928 170.906Z" fill="#217CE9"/>
<path d="M260.286 67.4643C260.286 68.8253 259.182 69.9286 257.821 69.9286C256.46 69.9286 255.357 68.8253 255.357 67.4643C255.357 66.1033 256.46 65 257.821 65C259.182 65 260.286 66.1033 260.286 67.4643Z" fill="#217CE9"/>
<path d="M275.071 67.4643C275.071 68.8253 273.968 69.9286 272.607 69.9286C271.246 69.9286 270.143 68.8253 270.143 67.4643C270.143 66.1033 271.246 65 272.607 65C273.968 65 275.071 66.1033 275.071 67.4643Z" fill="#217CE9"/>
<path d="M289.857 67.4643C289.857 68.8253 288.754 69.9286 287.393 69.9286C286.032 69.9286 284.929 68.8253 284.929 67.4643C284.929 66.1033 286.032 65 287.393 65C288.754 65 289.857 66.1033 289.857 67.4643Z" fill="#217CE9"/>
<path d="M304.643 67.4643C304.643 68.8253 303.54 69.9286 302.179 69.9286C300.818 69.9286 299.714 68.8253 299.714 67.4643C299.714 66.1033 300.818 65 302.179 65C303.54 65 304.643 66.1033 304.643 67.4643Z" fill="#217CE9"/>
<path d="M245.5 82.25C245.5 83.611 244.397 84.7143 243.036 84.7143C241.675 84.7143 240.571 83.611 240.571 82.25C240.571 80.889 241.675 79.7857 243.036 79.7857C244.397 79.7857 245.5 80.889 245.5 82.25Z" fill="#217CE9"/>
<path d="M260.286 82.25C260.286 83.611 259.182 84.7143 257.821 84.7143C256.46 84.7143 255.357 83.611 255.357 82.25C255.357 80.889 256.46 79.7857 257.821 79.7857C259.182 79.7857 260.286 80.889 260.286 82.25Z" fill="#217CE9"/>
<path d="M275.071 82.25C275.071 83.611 273.968 84.7143 272.607 84.7143C271.246 84.7143 270.143 83.611 270.143 82.25C270.143 80.889 271.246 79.7857 272.607 79.7857C273.968 79.7857 275.071 80.889 275.071 82.25Z" fill="#217CE9"/>
<path d="M289.857 82.25C289.857 83.611 288.754 84.7143 287.393 84.7143C286.032 84.7143 284.929 83.611 284.929 82.25C284.929 80.889 286.032 79.7857 287.393 79.7857C288.754 79.7857 289.857 80.889 289.857 82.25Z" fill="#217CE9"/>
<path d="M304.643 82.25C304.643 83.611 303.54 84.7143 302.179 84.7143C300.818 84.7143 299.714 83.611 299.714 82.25C299.714 80.889 300.818 79.7857 302.179 79.7857C303.54 79.7857 304.643 80.889 304.643 82.25Z" fill="#217CE9"/>
<path d="M319.429 82.25C319.429 83.611 318.325 84.7143 316.964 84.7143C315.603 84.7143 314.5 83.611 314.5 82.25C314.5 80.889 315.603 79.7857 316.964 79.7857C318.325 79.7857 319.429 80.889 319.429 82.25Z" fill="#217CE9"/>
<path d="M230.714 97.0357C230.714 98.3967 229.611 99.5 228.25 99.5C226.889 99.5 225.786 98.3967 225.786 97.0357C225.786 95.6747 226.889 94.5714 228.25 94.5714C229.611 94.5714 230.714 95.6747 230.714 97.0357Z" fill="#217CE9"/>
<path d="M245.5 97.0357C245.5 98.3967 244.397 99.5 243.036 99.5C241.675 99.5 240.571 98.3967 240.571 97.0357C240.571 95.6747 241.675 94.5714 243.036 94.5714C244.397 94.5714 245.5 95.6747 245.5 97.0357Z" fill="#217CE9"/>
<path d="M260.286 97.0357C260.286 98.3967 259.182 99.5 257.821 99.5C256.46 99.5 255.357 98.3967 255.357 97.0357C255.357 95.6747 256.46 94.5714 257.821 94.5714C259.182 94.5714 260.286 95.6747 260.286 97.0357Z" fill="#217CE9"/>
<path d="M275.071 97.0357C275.071 98.3967 273.968 99.5 272.607 99.5C271.246 99.5 270.143 98.3967 270.143 97.0357C270.143 95.6747 271.246 94.5714 272.607 94.5714C273.968 94.5714 275.071 95.6747 275.071 97.0357Z" fill="#217CE9"/>
<path d="M289.857 97.0357C289.857 98.3967 288.754 99.5 287.393 99.5C286.032 99.5 284.929 98.3967 284.929 97.0357C284.929 95.6747 286.032 94.5714 287.393 94.5714C288.754 94.5714 289.857 95.6747 289.857 97.0357Z" fill="#217CE9"/>
<path d="M304.643 97.0357C304.643 98.3967 303.54 99.5 302.179 99.5C300.818 99.5 299.714 98.3967 299.714 97.0357C299.714 95.6747 300.818 94.5714 302.179 94.5714C303.54 94.5714 304.643 95.6747 304.643 97.0357Z" fill="#217CE9"/>
<path d="M319.429 97.0357C319.429 98.3967 318.325 99.5 316.964 99.5C315.603 99.5 314.5 98.3967 314.5 97.0357C314.5 95.6747 315.603 94.5714 316.964 94.5714C318.325 94.5714 319.429 95.6747 319.429 97.0357Z" fill="#217CE9"/>
<path d="M334.214 97.0357C334.214 98.3967 333.111 99.5 331.75 99.5C330.389 99.5 329.286 98.3967 329.286 97.0357C329.286 95.6747 330.389 94.5714 331.75 94.5714C333.111 94.5714 334.214 95.6747 334.214 97.0357Z" fill="#217CE9"/>
<path d="M215.929 111.821C215.929 113.182 214.825 114.286 213.464 114.286C212.103 114.286 211 113.182 211 111.821C211 110.46 212.103 109.357 213.464 109.357C214.825 109.357 215.929 110.46 215.929 111.821Z" fill="#217CE9"/>
<path d="M230.714 111.821C230.714 113.182 229.611 114.286 228.25 114.286C226.889 114.286 225.786 113.182 225.786 111.821C225.786 110.46 226.889 109.357 228.25 109.357C229.611 109.357 230.714 110.46 230.714 111.821Z" fill="#217CE9"/>
<path d="M245.5 111.821C245.5 113.182 244.397 114.286 243.036 114.286C241.675 114.286 240.571 113.182 240.571 111.821C240.571 110.46 241.675 109.357 243.036 109.357C244.397 109.357 245.5 110.46 245.5 111.821Z" fill="#217CE9"/>
<path d="M260.286 111.821C260.286 113.182 259.182 114.286 257.821 114.286C256.46 114.286 255.357 113.182 255.357 111.821C255.357 110.46 256.46 109.357 257.821 109.357C259.182 109.357 260.286 110.46 260.286 111.821Z" fill="#217CE9"/>
<path d="M275.071 111.821C275.071 113.182 273.968 114.286 272.607 114.286C271.246 114.286 270.143 113.182 270.143 111.821C270.143 110.46 271.246 109.357 272.607 109.357C273.968 109.357 275.071 110.46 275.071 111.821Z" fill="#217CE9"/>
<path d="M289.857 111.821C289.857 113.182 288.754 114.286 287.393 114.286C286.032 114.286 284.929 113.182 284.929 111.821C284.929 110.46 286.032 109.357 287.393 109.357C288.754 109.357 289.857 110.46 289.857 111.821Z" fill="#217CE9"/>
<path d="M304.643 111.821C304.643 113.182 303.54 114.286 302.179 114.286C300.818 114.286 299.714 113.182 299.714 111.821C299.714 110.46 300.818 109.357 302.179 109.357C303.54 109.357 304.643 110.46 304.643 111.821Z" fill="#217CE9"/>
<path d="M319.429 111.821C319.429 113.182 318.325 114.286 316.964 114.286C315.603 114.286 314.5 113.182 314.5 111.821C314.5 110.46 315.603 109.357 316.964 109.357C318.325 109.357 319.429 110.46 319.429 111.821Z" fill="#217CE9"/>
<path d="M334.214 111.821C334.214 113.182 333.111 114.286 331.75 114.286C330.389 114.286 329.286 113.182 329.286 111.821C329.286 110.46 330.389 109.357 331.75 109.357C333.111 109.357 334.214 110.46 334.214 111.821Z" fill="#217CE9"/>
<path d="M349 111.821C349 113.182 347.897 114.286 346.536 114.286C345.175 114.286 344.071 113.182 344.071 111.821C344.071 110.46 345.175 109.357 346.536 109.357C347.897 109.357 349 110.46 349 111.821Z" fill="#217CE9"/>
<path d="M215.929 126.607C215.929 127.968 214.825 129.071 213.464 129.071C212.103 129.071 211 127.968 211 126.607C211 125.246 212.103 124.143 213.464 124.143C214.825 124.143 215.929 125.246 215.929 126.607Z" fill="#217CE9"/>
<path d="M230.714 126.607C230.714 127.968 229.611 129.071 228.25 129.071C226.889 129.071 225.786 127.968 225.786 126.607C225.786 125.246 226.889 124.143 228.25 124.143C229.611 124.143 230.714 125.246 230.714 126.607Z" fill="#217CE9"/>
<path d="M245.5 126.607C245.5 127.968 244.397 129.071 243.036 129.071C241.675 129.071 240.571 127.968 240.571 126.607C240.571 125.246 241.675 124.143 243.036 124.143C244.397 124.143 245.5 125.246 245.5 126.607Z" fill="#217CE9"/>
<path d="M260.286 126.607C260.286 127.968 259.182 129.071 257.821 129.071C256.46 129.071 255.357 127.968 255.357 126.607C255.357 125.246 256.46 124.143 257.821 124.143C259.182 124.143 260.286 125.246 260.286 126.607Z" fill="#217CE9"/>
<path d="M275.071 126.607C275.071 127.968 273.968 129.071 272.607 129.071C271.246 129.071 270.143 127.968 270.143 126.607C270.143 125.246 271.246 124.143 272.607 124.143C273.968 124.143 275.071 125.246 275.071 126.607Z" fill="#217CE9"/>
<path d="M289.857 126.607C289.857 127.968 288.754 129.071 287.393 129.071C286.032 129.071 284.929 127.968 284.929 126.607C284.929 125.246 286.032 124.143 287.393 124.143C288.754 124.143 289.857 125.246 289.857 126.607Z" fill="#217CE9"/>
<path d="M304.643 126.607C304.643 127.968 303.54 129.071 302.179 129.071C300.818 129.071 299.714 127.968 299.714 126.607C299.714 125.246 300.818 124.143 302.179 124.143C303.54 124.143 304.643 125.246 304.643 126.607Z" fill="#217CE9"/>
<path d="M319.429 126.607C319.429 127.968 318.325 129.071 316.964 129.071C315.603 129.071 314.5 127.968 314.5 126.607C314.5 125.246 315.603 124.143 316.964 124.143C318.325 124.143 319.429 125.246 319.429 126.607Z" fill="#217CE9"/>
<path d="M334.214 126.607C334.214 127.968 333.111 129.071 331.75 129.071C330.389 129.071 329.286 127.968 329.286 126.607C329.286 125.246 330.389 124.143 331.75 124.143C333.111 124.143 334.214 125.246 334.214 126.607Z" fill="#217CE9"/>
<path d="M349 126.607C349 127.968 347.897 129.071 346.536 129.071C345.175 129.071 344.071 127.968 344.071 126.607C344.071 125.246 345.175 124.143 346.536 124.143C347.897 124.143 349 125.246 349 126.607Z" fill="#217CE9"/>
<path d="M215.929 141.393C215.929 142.754 214.825 143.857 213.464 143.857C212.103 143.857 211 142.754 211 141.393C211 140.032 212.103 138.929 213.464 138.929C214.825 138.929 215.929 140.032 215.929 141.393Z" fill="#217CE9"/>
<path d="M230.714 141.393C230.714 142.754 229.611 143.857 228.25 143.857C226.889 143.857 225.786 142.754 225.786 141.393C225.786 140.032 226.889 138.929 228.25 138.929C229.611 138.929 230.714 140.032 230.714 141.393Z" fill="#217CE9"/>
<path d="M245.5 141.393C245.5 142.754 244.397 143.857 243.036 143.857C241.675 143.857 240.571 142.754 240.571 141.393C240.571 140.032 241.675 138.929 243.036 138.929C244.397 138.929 245.5 140.032 245.5 141.393Z" fill="#217CE9"/>
<path d="M260.286 141.393C260.286 142.754 259.182 143.857 257.821 143.857C256.46 143.857 255.357 142.754 255.357 141.393C255.357 140.032 256.46 138.929 257.821 138.929C259.182 138.929 260.286 140.032 260.286 141.393Z" fill="#217CE9"/>
<path d="M275.071 141.393C275.071 142.754 273.968 143.857 272.607 143.857C271.246 143.857 270.143 142.754 270.143 141.393C270.143 140.032 271.246 138.929 272.607 138.929C273.968 138.929 275.071 140.032 275.071 141.393Z" fill="#217CE9"/>
<path d="M289.857 141.393C289.857 142.754 288.754 143.857 287.393 143.857C286.032 143.857 284.929 142.754 284.929 141.393C284.929 140.032 286.032 138.929 287.393 138.929C288.754 138.929 289.857 140.032 289.857 141.393Z" fill="#217CE9"/>
<path d="M304.643 141.393C304.643 142.754 303.54 143.857 302.179 143.857C300.818 143.857 299.714 142.754 299.714 141.393C299.714 140.032 300.818 138.929 302.179 138.929C303.54 138.929 304.643 140.032 304.643 141.393Z" fill="#217CE9"/>
<path d="M319.429 141.393C319.429 142.754 318.325 143.857 316.964 143.857C315.603 143.857 314.5 142.754 314.5 141.393C314.5 140.032 315.603 138.929 316.964 138.929C318.325 138.929 319.429 140.032 319.429 141.393Z" fill="#217CE9"/>
<path d="M334.214 141.393C334.214 142.754 333.111 143.857 331.75 143.857C330.389 143.857 329.286 142.754 329.286 141.393C329.286 140.032 330.389 138.929 331.75 138.929C333.111 138.929 334.214 140.032 334.214 141.393Z" fill="#217CE9"/>
<path d="M349 141.393C349 142.754 347.897 143.857 346.536 143.857C345.175 143.857 344.071 142.754 344.071 141.393C344.071 140.032 345.175 138.929 346.536 138.929C347.897 138.929 349 140.032 349 141.393Z" fill="#217CE9"/>
<path d="M215.929 156.179C215.929 157.54 214.825 158.643 213.464 158.643C212.103 158.643 211 157.54 211 156.179C211 154.818 212.103 153.714 213.464 153.714C214.825 153.714 215.929 154.818 215.929 156.179Z" fill="#217CE9"/>
<path d="M230.714 156.179C230.714 157.54 229.611 158.643 228.25 158.643C226.889 158.643 225.786 157.54 225.786 156.179C225.786 154.818 226.889 153.714 228.25 153.714C229.611 153.714 230.714 154.818 230.714 156.179Z" fill="#217CE9"/>
<path d="M245.5 156.179C245.5 157.54 244.397 158.643 243.036 158.643C241.675 158.643 240.571 157.54 240.571 156.179C240.571 154.818 241.675 153.714 243.036 153.714C244.397 153.714 245.5 154.818 245.5 156.179Z" fill="#217CE9"/>
<path d="M260.286 156.179C260.286 157.54 259.182 158.643 257.821 158.643C256.46 158.643 255.357 157.54 255.357 156.179C255.357 154.818 256.46 153.714 257.821 153.714C259.182 153.714 260.286 154.818 260.286 156.179Z" fill="#217CE9"/>
<path d="M275.071 156.179C275.071 157.54 273.968 158.643 272.607 158.643C271.246 158.643 270.143 157.54 270.143 156.179C270.143 154.818 271.246 153.714 272.607 153.714C273.968 153.714 275.071 154.818 275.071 156.179Z" fill="#217CE9"/>
<path d="M289.857 156.179C289.857 157.54 288.754 158.643 287.393 158.643C286.032 158.643 284.929 157.54 284.929 156.179C284.929 154.818 286.032 153.714 287.393 153.714C288.754 153.714 289.857 154.818 289.857 156.179Z" fill="#217CE9"/>
<path d="M304.643 156.179C304.643 157.54 303.54 158.643 302.179 158.643C300.818 158.643 299.714 157.54 299.714 156.179C299.714 154.818 300.818 153.714 302.179 153.714C303.54 153.714 304.643 154.818 304.643 156.179Z" fill="#217CE9"/>
<path d="M319.429 156.179C319.429 157.54 318.325 158.643 316.964 158.643C315.603 158.643 314.5 157.54 314.5 156.179C314.5 154.818 315.603 153.714 316.964 153.714C318.325 153.714 319.429 154.818 319.429 156.179Z" fill="#217CE9"/>
<path d="M334.214 156.179C334.214 157.54 333.111 158.643 331.75 158.643C330.389 158.643 329.286 157.54 329.286 156.179C329.286 154.818 330.389 153.714 331.75 153.714C333.111 153.714 334.214 154.818 334.214 156.179Z" fill="#217CE9"/>
<path d="M349 156.179C349 157.54 347.897 158.643 346.536 158.643C345.175 158.643 344.071 157.54 344.071 156.179C344.071 154.818 345.175 153.714 346.536 153.714C347.897 153.714 349 154.818 349 156.179Z" fill="#217CE9"/>
<path d="M230.714 170.964C230.714 172.325 229.611 173.429 228.25 173.429C226.889 173.429 225.786 172.325 225.786 170.964C225.786 169.603 226.889 168.5 228.25 168.5C229.611 168.5 230.714 169.603 230.714 170.964Z" fill="#217CE9"/>
<path d="M245.5 170.964C245.5 172.325 244.397 173.429 243.036 173.429C241.675 173.429 240.571 172.325 240.571 170.964C240.571 169.603 241.675 168.5 243.036 168.5C244.397 168.5 245.5 169.603 245.5 170.964Z" fill="#217CE9"/>
<path d="M260.286 170.964C260.286 172.325 259.182 173.429 257.821 173.429C256.46 173.429 255.357 172.325 255.357 170.964C255.357 169.603 256.46 168.5 257.821 168.5C259.182 168.5 260.286 169.603 260.286 170.964Z" fill="#217CE9"/>
<path d="M275.071 170.964C275.071 172.325 273.968 173.429 272.607 173.429C271.246 173.429 270.143 172.325 270.143 170.964C270.143 169.603 271.246 168.5 272.607 168.5C273.968 168.5 275.071 169.603 275.071 170.964Z" fill="#217CE9"/>
<path d="M289.857 170.964C289.857 172.325 288.754 173.429 287.393 173.429C286.032 173.429 284.929 172.325 284.929 170.964C284.929 169.603 286.032 168.5 287.393 168.5C288.754 168.5 289.857 169.603 289.857 170.964Z" fill="#217CE9"/>
<path d="M304.643 170.964C304.643 172.325 303.54 173.429 302.179 173.429C300.818 173.429 299.714 172.325 299.714 170.964C299.714 169.603 300.818 168.5 302.179 168.5C303.54 168.5 304.643 169.603 304.643 170.964Z" fill="#217CE9"/>
<path d="M319.429 170.964C319.429 172.325 318.325 173.429 316.964 173.429C315.603 173.429 314.5 172.325 314.5 170.964C314.5 169.603 315.603 168.5 316.964 168.5C318.325 168.5 319.429 169.603 319.429 170.964Z" fill="#217CE9"/>
<path d="M334.214 170.964C334.214 172.325 333.111 173.429 331.75 173.429C330.389 173.429 329.286 172.325 329.286 170.964C329.286 169.603 330.389 168.5 331.75 168.5C333.111 168.5 334.214 169.603 334.214 170.964Z" fill="#217CE9"/>
<path d="M245.5 185.75C245.5 187.111 244.397 188.214 243.036 188.214C241.675 188.214 240.571 187.111 240.571 185.75C240.571 184.389 241.675 183.286 243.036 183.286C244.397 183.286 245.5 184.389 245.5 185.75Z" fill="#217CE9"/>
<path d="M260.286 185.75C260.286 187.111 259.182 188.214 257.821 188.214C256.46 188.214 255.357 187.111 255.357 185.75C255.357 184.389 256.46 183.286 257.821 183.286C259.182 183.286 260.286 184.389 260.286 185.75Z" fill="#217CE9"/>
<path d="M275.071 185.75C275.071 187.111 273.968 188.214 272.607 188.214C271.246 188.214 270.143 187.111 270.143 185.75C270.143 184.389 271.246 183.286 272.607 183.286C273.968 183.286 275.071 184.389 275.071 185.75Z" fill="#217CE9"/>
<path d="M289.857 185.75C289.857 187.111 288.754 188.214 287.393 188.214C286.032 188.214 284.929 187.111 284.929 185.75C284.929 184.389 286.032 183.286 287.393 183.286C288.754 183.286 289.857 184.389 289.857 185.75Z" fill="#217CE9"/>
<path d="M304.643 185.75C304.643 187.111 303.54 188.214 302.179 188.214C300.818 188.214 299.714 187.111 299.714 185.75C299.714 184.389 300.818 183.286 302.179 183.286C303.54 183.286 304.643 184.389 304.643 185.75Z" fill="#217CE9"/>
<path d="M319.429 185.75C319.429 187.111 318.325 188.214 316.964 188.214C315.603 188.214 314.5 187.111 314.5 185.75C314.5 184.389 315.603 183.286 316.964 183.286C318.325 183.286 319.429 184.389 319.429 185.75Z" fill="#217CE9"/>
<path d="M260.286 200.536C260.286 201.897 259.182 203 257.821 203C256.46 203 255.357 201.897 255.357 200.536C255.357 199.175 256.46 198.071 257.821 198.071C259.182 198.071 260.286 199.175 260.286 200.536Z" fill="#217CE9"/>
<path d="M275.071 200.536C275.071 201.897 273.968 203 272.607 203C271.246 203 270.143 201.897 270.143 200.536C270.143 199.175 271.246 198.071 272.607 198.071C273.968 198.071 275.071 199.175 275.071 200.536Z" fill="#217CE9"/>
<path d="M289.857 200.536C289.857 201.897 288.754 203 287.393 203C286.032 203 284.929 201.897 284.929 200.536C284.929 199.175 286.032 198.071 287.393 198.071C288.754 198.071 289.857 199.175 289.857 200.536Z" fill="#217CE9"/>
<path d="M304.643 200.536C304.643 201.897 303.54 203 302.179 203C300.818 203 299.714 201.897 299.714 200.536C299.714 199.175 300.818 198.071 302.179 198.071C303.54 198.071 304.643 199.175 304.643 200.536Z" fill="#217CE9"/>
</g>
</svg>
