<svg width="20" height="20" viewBox="0 0 20 20" fill="none" xmlns="http://www.w3.org/2000/svg">
<g id="Iconsax/Linear/global" clip-path="url(#clip0_369_382)">
<path id="Vector" d="M9.99984 18.3337C14.6023 18.3337 18.3332 14.6028 18.3332 10.0003C18.3332 5.39783 14.6023 1.66699 9.99984 1.66699C5.39734 1.66699 1.6665 5.39783 1.6665 10.0003C1.6665 14.6028 5.39734 18.3337 9.99984 18.3337Z" stroke="#E2E2E2" stroke-width="1.5" stroke-linecap="round" stroke-linejoin="round"/>
<path id="Vector_2" d="M6.66665 2.5H7.49998C5.87501 7.36797 5.87501 12.632 7.49998 17.5H6.66665M12.5 2.5C14.125 7.36797 14.125 12.632 12.5 17.5" stroke="#E2E2E2" stroke-width="1.5" stroke-linecap="round" stroke-linejoin="round"/>
<path id="Vector_3" d="M2.5 13.3333V12.5C7.36797 14.125 12.632 14.125 17.5 12.5V13.3333M2.5 7.49998C7.36797 5.87501 12.632 5.87501 17.5 7.49998" stroke="#E2E2E2" stroke-width="1.5" stroke-linecap="round" stroke-linejoin="round"/>
</g>
<defs>
<clipPath id="clip0_369_382">
<rect width="20" height="20" fill="white"/>
</clipPath>
</defs>
</svg>
