<svg width="27" height="26" viewBox="0 0 27 26" fill="none" xmlns="http://www.w3.org/2000/svg">
<path d="M25.1983 11.0723L14.8209 11.0718C14.3626 11.0718 13.9912 11.4432 13.9912 11.9014V15.2165C13.9912 15.6747 14.3626 16.0462 14.8208 16.0462H20.6648C20.0249 17.7069 18.8305 19.0977 17.3067 19.9814L19.7985 24.295C23.7958 21.9832 26.159 17.927 26.159 13.3864C26.159 12.7398 26.1113 12.2777 26.016 11.7573C25.9435 11.3619 25.6003 11.0723 25.1983 11.0723Z" fill="#167EE6"/>
<path d="M13.4387 21.0272C10.5788 21.0272 8.0821 19.4646 6.7412 17.1523L2.42773 19.6386C4.62283 23.443 8.73494 26.0049 13.4387 26.0049C15.7462 26.0049 17.9235 25.3836 19.7991 24.3009V24.295L17.3073 19.9813C16.1674 20.6424 14.8485 21.0272 13.4387 21.0272Z" fill="#12B347"/>
<path d="M19.7989 24.301V24.2951L17.3071 19.9814C16.1672 20.6425 14.8484 21.0273 13.4385 21.0273V26.005C15.746 26.005 17.9234 25.3837 19.7989 24.301Z" fill="#0F993E"/>
<path d="M5.6955 13.2842C5.6955 11.8745 6.08021 10.5557 6.74115 9.41592L2.42768 6.92969C1.33901 8.7994 0.717773 10.9708 0.717773 13.2842C0.717773 15.5976 1.33901 17.769 2.42768 19.6387L6.74115 17.1525C6.08021 16.0127 5.6955 14.6939 5.6955 13.2842Z" fill="#FFD500"/>
<path d="M13.4387 5.54096C15.3036 5.54096 17.0167 6.20364 18.3547 7.30593C18.6848 7.57784 19.1645 7.55821 19.4669 7.25584L21.8158 4.90696C22.1589 4.56389 22.1344 4.00233 21.7679 3.68441C19.5261 1.73956 16.6093 0.563232 13.4387 0.563232C8.73494 0.563232 4.62283 3.12514 2.42773 6.92957L6.7412 9.4158C8.0821 7.10354 10.5788 5.54096 13.4387 5.54096Z" fill="#FF4B26"/>
<path d="M18.3545 7.30593C18.6846 7.57784 19.1644 7.55821 19.4667 7.25584L21.8156 4.90696C22.1586 4.56389 22.1342 4.00233 21.7678 3.68441C19.526 1.73951 16.6091 0.563232 13.4385 0.563232V5.54096C15.3034 5.54096 17.0165 6.20364 18.3545 7.30593Z" fill="#D93F21"/>
</svg>
