<svg width="18" height="18" viewBox="0 0 18 18" fill="none" xmlns="http://www.w3.org/2000/svg">
<g id="instagram-fill" clip-path="url(#clip0_369_399)">
<path id="Vector" d="M9.00146 1.49902C11.0392 1.49902 11.2935 1.50652 12.093 1.54402C12.8917 1.58152 13.4355 1.70677 13.914 1.89277C14.409 2.08327 14.826 2.34127 15.243 2.75752C15.6243 3.13245 15.9194 3.58596 16.1077 4.08652C16.293 4.56427 16.419 5.10877 16.4565 5.90752C16.4917 6.70702 16.5015 6.96127 16.5015 8.99902C16.5015 11.0368 16.494 11.291 16.4565 12.0905C16.419 12.8893 16.293 13.433 16.1077 13.9115C15.92 14.4124 15.6248 14.866 15.243 15.2405C14.8679 15.6218 14.4144 15.9168 13.914 16.1053C13.4362 16.2905 12.8917 16.4165 12.093 16.454C11.2935 16.4893 11.0392 16.499 9.00146 16.499C6.96371 16.499 6.70946 16.4915 5.90996 16.454C5.11121 16.4165 4.56746 16.2905 4.08896 16.1053C3.58821 15.9174 3.13461 15.6222 2.75996 15.2405C2.37852 14.8657 2.08341 14.4121 1.89521 13.9115C1.70921 13.4338 1.58396 12.8893 1.54646 12.0905C1.51121 11.291 1.50146 11.0368 1.50146 8.99902C1.50146 6.96127 1.50896 6.70702 1.54646 5.90752C1.58396 5.10802 1.70921 4.56502 1.89521 4.08652C2.08289 3.58566 2.37807 3.13201 2.75996 2.75752C3.13472 2.37595 3.58829 2.08082 4.08896 1.89277C4.56746 1.70677 5.11046 1.58152 5.90996 1.54402C6.70946 1.50877 6.96371 1.49902 9.00146 1.49902ZM9.00146 5.24902C8.0069 5.24902 7.05308 5.64411 6.34981 6.34737C5.64655 7.05063 5.25146 8.00446 5.25146 8.99902C5.25146 9.99358 5.64655 10.9474 6.34981 11.6507C7.05308 12.3539 8.0069 12.749 9.00146 12.749C9.99603 12.749 10.9499 12.3539 11.6531 11.6507C12.3564 10.9474 12.7515 9.99358 12.7515 8.99902C12.7515 8.00446 12.3564 7.05063 11.6531 6.34737C10.9499 5.64411 9.99603 5.24902 9.00146 5.24902ZM13.8765 5.06152C13.8765 4.81288 13.7777 4.57443 13.6019 4.39861C13.4261 4.2228 13.1876 4.12402 12.939 4.12402C12.6903 4.12402 12.4519 4.2228 12.2761 4.39861C12.1002 4.57443 12.0015 4.81288 12.0015 5.06152C12.0015 5.31016 12.1002 5.54862 12.2761 5.72444C12.4519 5.90025 12.6903 5.99902 12.939 5.99902C13.1876 5.99902 13.4261 5.90025 13.6019 5.72444C13.7777 5.54862 13.8765 5.31016 13.8765 5.06152ZM9.00146 6.74902C9.5982 6.74902 10.1705 6.98608 10.5925 7.40803C11.0144 7.82999 11.2515 8.40229 11.2515 8.99902C11.2515 9.59576 11.0144 10.1681 10.5925 10.59C10.1705 11.012 9.5982 11.249 9.00146 11.249C8.40473 11.249 7.83243 11.012 7.41047 10.59C6.98852 10.1681 6.75146 9.59576 6.75146 8.99902C6.75146 8.40229 6.98852 7.82999 7.41047 7.40803C7.83243 6.98608 8.40473 6.74902 9.00146 6.74902Z" fill="white"/>
</g>
<defs>
<clipPath id="clip0_369_399">
<rect width="18" height="18" fill="white"/>
</clipPath>
</defs>
</svg>
