<svg width="18" height="18" viewBox="0 0 18 18" fill="none" xmlns="http://www.w3.org/2000/svg">
<g id="linkedin-fill" clip-path="url(#clip0_369_402)">
<path id="Vector" d="M5.2041 3.74977C5.2039 4.1476 5.04568 4.52905 4.76423 4.81021C4.48279 5.09138 4.10118 5.24922 3.70335 5.24902C3.30553 5.24882 2.92408 5.0906 2.64291 4.80915C2.36175 4.52771 2.2039 4.1461 2.2041 3.74827C2.2043 3.35045 2.36253 2.969 2.64397 2.68783C2.92542 2.40667 3.30703 2.24882 3.70485 2.24902C4.10268 2.24922 4.48413 2.40745 4.76529 2.68889C5.04646 2.97034 5.2043 3.35195 5.2041 3.74977ZM5.2491 6.35977H2.2491V15.7498H5.2491V6.35977ZM9.9891 6.35977H7.0041V15.7498H9.9591V10.8223C9.9591 8.07727 13.5366 7.82227 13.5366 10.8223V15.7498H16.4991V9.80227C16.4991 5.17477 11.2041 5.34727 9.9591 7.61977L9.9891 6.35977Z" fill="white"/>
</g>
<defs>
<clipPath id="clip0_369_402">
<rect width="18" height="18" fill="white"/>
</clipPath>
</defs>
</svg>
