<svg width="154" height="44" viewBox="0 0 154 44" fill="none" xmlns="http://www.w3.org/2000/svg">
<g clip-path="url(#clip0_369_433)">
<path d="M12.0039 30.4813C12.5012 27.8236 10.313 26.7977 10.2149 26.7605C10.1631 26.7339 10.114 26.7086 10.065 26.6807C10.0367 26.6647 10.0149 26.6398 10.003 26.6102C9.99111 26.5805 9.98991 26.5477 9.99957 26.5173C10.1358 26.0442 10.0786 25.5871 9.7802 25.2974C9.43684 24.9625 8.86866 24.932 8.3073 25.1645C8.27805 25.1772 8.24531 25.18 8.21424 25.1725C8.18317 25.1651 8.15551 25.1478 8.13562 25.1233C4.46766 20.3992 12.335 12.0301 12.335 12.0301L12.2546 12.058L12.2982 12.0101C12.3101 11.9963 12.3247 11.9849 12.3412 11.9767C12.3578 11.9686 12.3758 11.9638 12.3943 11.9627C12.4128 11.9615 12.4313 11.9641 12.4488 11.9702C12.4662 11.9763 12.4822 11.9858 12.4957 11.9982C12.5107 12.0097 12.523 12.0241 12.5319 12.0405C12.5408 12.057 12.546 12.075 12.5473 12.0936C12.5486 12.1121 12.5459 12.1307 12.5394 12.1481C12.5328 12.1656 12.5226 12.1815 12.5094 12.1948C11.9017 12.8593 8.60842 16.5801 7.72141 20.2437C7.7105 20.2709 7.70907 20.3008 7.71733 20.3289C7.72559 20.3569 7.74308 20.3815 7.7671 20.3989C7.79113 20.4163 7.82035 20.4255 7.85026 20.425C7.88016 20.4246 7.9091 20.4146 7.9326 20.3966L8.12744 20.2849L16.0779 15.7336C16.0991 15.7222 16.1166 15.7051 16.1283 15.6844L20.795 7.92654L25.4412 0.209852C25.4671 0.184652 25.4816 0.150475 25.4816 0.114838C25.4816 0.0792011 25.4671 0.0450238 25.4412 0.0198246C25.4284 0.00734727 25.4132 -0.0025503 25.3965 -0.00930299C25.3798 -0.0160557 25.3619 -0.0195313 25.3438 -0.0195312C25.3073 -0.0195312 25.2722 -0.00537452 25.2464 0.0198246L9.37825 9.09727C9.3576 9.10942 9.3403 9.12629 9.32784 9.14643L0.0203338 24.6223C-0.005504 24.6475 -0.0200195 24.6817 -0.0200195 24.7173C-0.0200195 24.753 -0.005504 24.7872 0.0203338 24.8124C0.0461716 24.8376 0.0812152 24.8517 0.117755 24.8517C0.154296 24.8517 0.189339 24.8376 0.215177 24.8124L5.4991 21.7932C5.52125 21.7784 5.54739 21.7703 5.57424 21.7699C5.60109 21.7695 5.62746 21.7769 5.65002 21.7911C5.67258 21.8053 5.69034 21.8257 5.70107 21.8497C5.71179 21.8737 5.715 21.9003 5.7103 21.9261C5.48412 23.6935 6.13132 25.0861 6.94885 26.2954C6.96207 26.3149 6.96979 26.3374 6.97123 26.3607C6.97266 26.3841 6.96776 26.4074 6.95702 26.4283C6.68451 26.997 6.7104 27.5804 7.06739 27.9285C7.33989 28.1943 7.75819 28.2701 8.20102 28.1717C8.22926 28.165 8.25894 28.1667 8.28617 28.1766C8.31339 28.1866 8.33691 28.2043 8.35362 28.2275C8.42993 28.3352 8.50214 28.4415 8.57163 28.5478C9.51859 29.9923 8.93815 31.8301 8.65202 32.5344C8.63853 32.5595 8.63362 32.5881 8.638 32.6161C8.64237 32.6441 8.65581 32.67 8.67635 32.69C8.69689 32.7101 8.72345 32.7232 8.75216 32.7274C8.78088 32.7317 8.81024 32.7269 8.83596 32.7138L10.2639 32.1756C12.0066 31.5218 12.0039 30.4813 12.0039 30.4813Z" fill="url(#paint0_linear_369_433)"/>
<path d="M18.3301 12.5975L16.3286 15.9197L16.2645 15.9569L12.9168 17.8771L8.50079 20.4019C8.48099 20.4117 8.46395 20.4261 8.45115 20.4438C8.43836 20.4615 8.43019 20.482 8.42737 20.5035C8.42455 20.525 8.42716 20.5468 8.43497 20.5671C8.44278 20.5874 8.45555 20.6055 8.47217 20.6199L10.9588 23.045C11.1473 23.2163 11.3934 23.3146 11.651 23.3214C13.1893 23.437 16.2768 21.6192 19.2226 18.7462C22.1684 15.8732 24.0324 12.862 23.9138 11.3617C23.9062 11.1106 23.8055 10.8708 23.6304 10.6866L21.1438 8.26279C21.1291 8.24657 21.1105 8.23412 21.0897 8.2265C21.0689 8.21889 21.0465 8.21634 21.0245 8.21909C21.0025 8.22185 20.9815 8.22981 20.9633 8.24229C20.9451 8.25477 20.9304 8.27138 20.9203 8.29069L18.3301 12.5975Z" fill="url(#paint1_linear_369_433)"/>
<path d="M43.1135 12.5934C43.1135 12.4008 43.0745 12.2102 42.9988 12.0324C42.923 11.8546 42.812 11.6932 42.6721 11.5574C42.5322 11.4216 42.3662 11.314 42.1836 11.241C42.0009 11.1679 41.8053 11.1307 41.6079 11.1316H25.1076C25.1076 11.1834 25.1239 11.2353 25.128 11.2911C25.3119 13.6139 22.5283 17.2165 20.0866 19.5964C17.6449 21.9764 13.9552 24.6913 11.5707 24.5132C11.5135 24.5132 11.4604 24.4999 11.4072 24.4933V26.0374C11.4073 26.0584 11.4123 26.0791 11.4217 26.098C11.4311 26.1169 11.4448 26.1334 11.4617 26.1464C12.4823 26.9065 13.6023 28.4055 13.214 30.6379C13.1312 31.2691 12.8275 31.8531 12.3542 32.291C12.0936 32.5428 11.7994 32.7592 11.4794 32.9342C11.4575 32.9459 11.4393 32.9632 11.4268 32.9843C11.4143 33.0054 11.408 33.0295 11.4086 33.0538V40.6934C11.4086 41.0529 11.555 41.3977 11.8156 41.6519C12.0763 41.9061 12.4298 42.0489 12.7984 42.0489H24.8541C25.2192 42.0485 25.5693 41.9068 25.8273 41.6549C26.0853 41.403 26.2303 41.0615 26.2303 40.7054V25.9298C26.2303 25.9118 26.234 25.8939 26.2413 25.8774C26.2485 25.8608 26.2592 25.8458 26.2726 25.8334C26.286 25.821 26.3018 25.8113 26.3191 25.805C26.3364 25.7988 26.3549 25.796 26.3734 25.7969H38.1879C38.2064 25.796 38.2248 25.7988 38.2422 25.805C38.2595 25.8113 38.2753 25.821 38.2887 25.8334C38.3021 25.8458 38.3127 25.8608 38.32 25.8774C38.3273 25.8939 38.331 25.9118 38.331 25.9298V29.1018C38.331 29.1198 38.3273 29.1376 38.32 29.1542C38.3127 29.1708 38.3021 29.1857 38.2887 29.1982C38.2753 29.2106 38.2595 29.2202 38.2422 29.2265C38.2248 29.2328 38.2064 29.2356 38.1879 29.2347H29.9051C29.8866 29.2346 29.8683 29.2383 29.8513 29.2454C29.8343 29.2525 29.819 29.2629 29.8062 29.2759C29.7935 29.289 29.7836 29.3044 29.7772 29.3213C29.7707 29.3382 29.7679 29.3562 29.7688 29.3742V32.5435C29.7688 32.5788 29.7832 32.6126 29.8087 32.6375C29.8343 32.6624 29.8689 32.6764 29.9051 32.6764H35.4261C35.4622 32.6764 35.4969 32.6904 35.5224 32.7153C35.548 32.7403 35.5623 32.7741 35.5623 32.8093V35.9786C35.5623 36.0139 35.548 36.0477 35.5224 36.0726C35.4969 36.0975 35.4622 36.1115 35.4261 36.1115H29.9051C29.8689 36.1115 29.8343 36.1255 29.8087 36.1504C29.7832 36.1754 29.7688 36.2092 29.7688 36.2444V39.4004C29.7688 39.4357 29.7832 39.4695 29.8087 39.4944C29.8343 39.5193 29.8689 39.5333 29.9051 39.5333H38.1879C38.207 39.5324 38.226 39.5353 38.2438 39.542C38.2616 39.5487 38.2778 39.5589 38.2913 39.5721C38.3048 39.5852 38.3153 39.601 38.3221 39.6184C38.329 39.6357 38.332 39.6543 38.331 39.6729V41.8828C38.331 41.918 38.3454 41.9518 38.3709 41.9767C38.3965 42.0016 38.4311 42.0156 38.4673 42.0156H41.7251C41.9068 42.0158 42.0867 41.981 42.2545 41.9133C42.4224 41.8456 42.5749 41.7463 42.7034 41.621C42.8319 41.4957 42.9337 41.3469 43.0032 41.1832C43.0726 41.0195 43.1082 40.844 43.1081 40.6668L43.1135 12.5934Z" fill="url(#paint2_linear_369_433)"/>
</g>
<path d="M53.7545 36.5632V18.4253H65.046V21.9507H57.4587V25.6805H63.5132V29.2059H57.4587V33.0378H65.046V36.5632H53.7545ZM72.7037 36.8442C71.0177 36.8442 69.5956 36.1886 68.4375 34.8772C67.2794 33.5658 66.7003 31.9989 66.7003 30.1766C66.7003 28.3543 67.2794 26.7875 68.4375 25.4761C69.5956 24.1647 71.0177 23.509 72.7037 23.509C73.5212 23.509 74.2535 23.6793 74.9007 24.02C75.5479 24.3606 76.0418 24.7608 76.3824 25.2206V17.4035H79.8822V36.5632H76.3824V35.1326C76.0418 35.5925 75.5479 35.9927 74.9007 36.3333C74.2535 36.6739 73.5212 36.8442 72.7037 36.8442ZM71.0943 32.6802C71.6904 33.3274 72.4738 33.6509 73.4446 33.6509C74.4153 33.6509 75.1902 33.3274 75.7693 32.6802C76.3654 32.033 76.6634 31.1985 76.6634 30.1766C76.6634 29.1548 76.3654 28.3203 75.7693 27.6731C75.1902 27.0259 74.4153 26.7023 73.4446 26.7023C72.4738 26.7023 71.6904 27.0259 71.0943 27.6731C70.5152 28.3203 70.2257 29.1548 70.2257 30.1766C70.2257 31.1985 70.5152 32.033 71.0943 32.6802ZM87.9341 36.8442C86.4184 36.8442 85.2347 36.3333 84.3832 35.3115C83.5487 34.2896 83.1314 32.9186 83.1314 31.1985V23.79H86.6313V30.6109C86.6313 32.6376 87.3551 33.6509 88.8027 33.6509C89.6202 33.6509 90.2589 33.3444 90.7187 32.7313C91.1956 32.1182 91.434 31.2155 91.434 30.0234V23.79H94.9338V36.5632H91.434V35.1071C90.6506 36.2652 89.484 36.8442 87.9341 36.8442ZM104.204 36.8442C102.28 36.8442 100.679 36.2056 99.4017 34.9283C98.1244 33.6339 97.4857 32.05 97.4857 30.1766C97.4857 28.3032 98.1244 26.7279 99.4017 25.4506C100.679 24.1562 102.28 23.509 104.204 23.509C105.907 23.509 107.33 23.9859 108.471 24.9396C109.629 25.8934 110.387 27.1366 110.744 28.6694H107.117C106.555 27.341 105.584 26.6768 104.204 26.6768C103.268 26.6768 102.501 27.0004 101.905 27.6475C101.309 28.2777 101.011 29.1207 101.011 30.1766C101.011 31.2326 101.309 32.0841 101.905 32.7313C102.501 33.3614 103.268 33.6765 104.204 33.6765C105.584 33.6765 106.555 33.0123 107.117 31.6839H110.744C110.387 33.2167 109.629 34.4599 108.471 35.4136C107.33 36.3674 105.907 36.8442 104.204 36.8442ZM118.308 36.8442C116.622 36.8442 115.2 36.1886 114.042 34.8772C112.884 33.5658 112.305 31.9989 112.305 30.1766C112.305 28.3543 112.884 26.7875 114.042 25.4761C115.2 24.1647 116.622 23.509 118.308 23.509C119.125 23.509 119.858 23.6793 120.505 24.02C121.152 24.3606 121.646 24.7608 121.987 25.2206V23.79H125.487V36.5632H121.987V35.1326C121.646 35.5925 121.152 35.9927 120.505 36.3333C119.858 36.6739 119.125 36.8442 118.308 36.8442ZM116.699 32.6802C117.295 33.3274 118.078 33.6509 119.049 33.6509C120.02 33.6509 120.794 33.3274 121.374 32.6802C121.97 32.033 122.268 31.1985 122.268 30.1766C122.268 29.1548 121.97 28.3203 121.374 27.6731C120.794 27.0259 120.02 26.7023 119.049 26.7023C118.078 26.7023 117.295 27.0259 116.699 27.6731C116.12 28.3203 115.83 29.1548 115.83 30.1766C115.83 31.1985 116.12 32.033 116.699 32.6802ZM135.071 36.7165C133.641 36.7165 132.465 36.3248 131.546 35.5414C130.643 34.7409 130.192 33.5913 130.192 32.0926V26.8556H127.612V23.79H130.192V20.2391H133.692V23.79H137.294V26.8556H133.692V31.4029C133.692 32.1863 133.862 32.7483 134.203 33.0889C134.543 33.4125 135.097 33.5743 135.863 33.5743C136.408 33.5743 136.885 33.4977 137.294 33.3444V36.4355C136.681 36.6228 135.94 36.7165 135.071 36.7165ZM145.492 36.8442C143.534 36.8442 141.924 36.2141 140.664 34.9538C139.421 33.6935 138.799 32.0926 138.799 30.1511C138.799 28.2436 139.429 26.6598 140.689 25.3995C141.967 24.1392 143.576 23.509 145.518 23.509C147.476 23.509 149.103 24.1818 150.397 25.5272C151.691 26.8556 152.287 28.6779 152.185 30.9941H142.222C142.29 31.7946 142.622 32.4673 143.218 33.0123C143.815 33.5402 144.632 33.8042 145.671 33.8042C146.301 33.8042 146.855 33.685 147.331 33.4466C147.825 33.1911 148.174 32.842 148.379 32.3992H152.032C151.657 33.7106 150.874 34.7835 149.682 35.618C148.49 36.4355 147.093 36.8442 145.492 36.8442ZM145.415 26.3447C144.615 26.3447 143.942 26.5576 143.397 26.9833C142.869 27.3921 142.52 27.9626 142.35 28.6949H148.353C148.166 27.8945 147.791 27.3069 147.229 26.9322C146.684 26.5405 146.08 26.3447 145.415 26.3447Z" fill="#192335"/>
<defs>
<linearGradient id="paint0_linear_369_433" x1="-0.0200195" y1="-0.0195312" x2="31.7302" y2="24.7047" gradientUnits="userSpaceOnUse">
<stop stop-color="#5497FC"/>
<stop offset="1" stop-color="#1B79E7"/>
</linearGradient>
<linearGradient id="paint1_linear_369_433" x1="8.42627" y1="8.21802" x2="23.5301" y2="23.706" gradientUnits="userSpaceOnUse">
<stop stop-color="#5497FC"/>
<stop offset="1" stop-color="#1B79E7"/>
</linearGradient>
<linearGradient id="paint2_linear_369_433" x1="11.4072" y1="11.1316" x2="42.3147" y2="42.8278" gradientUnits="userSpaceOnUse">
<stop stop-color="#5497FC"/>
<stop offset="1" stop-color="#1B79E7"/>
</linearGradient>
<clipPath id="clip0_369_433">
<rect width="43.1135" height="42.0478" fill="white"/>
</clipPath>
</defs>
</svg>
