<svg width="24" height="25" viewBox="0 0 24 25" fill="none" xmlns="http://www.w3.org/2000/svg">
<g id="UI icon/close/filled">
<path id="Union" d="M6.70708 6.07463C6.31655 5.68411 5.68339 5.68411 5.29286 6.07463C4.90234 6.46516 4.90234 7.09832 5.29286 7.48885L10.5857 12.7817L5.29277 18.0746C4.90225 18.4652 4.90225 19.0983 5.29277 19.4888C5.6833 19.8794 6.31646 19.8794 6.70698 19.4888L11.9999 14.1959L17.2929 19.4889C17.6834 19.8794 18.3166 19.8794 18.7071 19.4889C19.0976 19.0983 19.0976 18.4652 18.7071 18.0746L13.4141 12.7817L18.707 7.48885C19.0975 7.09832 19.0975 6.46516 18.707 6.07463C18.3165 5.68411 17.6833 5.68411 17.2928 6.07463L11.9999 11.3675L6.70708 6.07463Z" fill="#6B7385"/>
</g>
</svg>
