<svg width="20" height="20" viewBox="0 0 20 20" fill="none" xmlns="http://www.w3.org/2000/svg">
<path d="M5.41663 13.3492C6.10681 13.3492 6.77828 13.4275 7.43106 13.584C8.08384 13.7405 8.73181 13.986 9.37498 14.3204V6.12809C8.78951 5.74669 8.15596 5.46064 7.47433 5.26993C6.79271 5.07922 6.10681 4.98387 5.41663 4.98387C4.91663 4.98387 4.44948 5.02312 4.01519 5.10164C3.5809 5.18016 3.13458 5.30864 2.67625 5.48705C2.61214 5.50843 2.56673 5.53915 2.54002 5.57922C2.51331 5.61929 2.49996 5.66336 2.49996 5.71143V13.5928C2.49996 13.6676 2.52667 13.7224 2.58008 13.7571C2.63351 13.7918 2.69228 13.7958 2.7564 13.7691C3.15169 13.6345 3.56888 13.5309 4.00798 13.4582C4.44708 13.3856 4.91663 13.3492 5.41663 13.3492ZM10.6249 14.3204C11.2681 13.986 11.9161 13.7405 12.5689 13.584C13.2216 13.4275 13.8931 13.3492 14.5833 13.3492C15.0833 13.3492 15.5528 13.3856 15.9919 13.4582C16.431 13.5309 16.8482 13.6345 17.2435 13.7691C17.3076 13.7958 17.3664 13.7918 17.4198 13.7571C17.4732 13.7224 17.5 13.6676 17.5 13.5928V5.71143C17.5 5.66336 17.4866 5.62062 17.4599 5.58322C17.4332 5.54582 17.3878 5.51376 17.3237 5.48705C16.8653 5.30864 16.419 5.18016 15.9847 5.10164C15.5504 5.02312 15.0833 4.98387 14.5833 4.98387C13.8931 4.98387 13.2072 5.07922 12.5256 5.26993C11.844 5.46064 11.2104 5.74669 10.6249 6.12809V14.3204ZM9.99996 15.8043C9.83757 15.8043 9.6856 15.784 9.54404 15.7434C9.40249 15.7029 9.26867 15.6489 9.1426 15.5816C8.56888 15.2568 7.96872 15.0119 7.3421 14.8468C6.71551 14.6817 6.07368 14.5992 5.41663 14.5992C4.90808 14.5992 4.40863 14.6556 3.91825 14.7683C3.42786 14.881 2.9551 15.0469 2.49998 15.2659C2.20298 15.4026 1.9204 15.381 1.65223 15.201C1.38408 15.0209 1.25 14.7659 1.25 14.4357V5.38772C1.25 5.20823 1.2962 5.0397 1.3886 4.88212C1.48102 4.72453 1.61431 4.61102 1.78846 4.54157C2.35256 4.267 2.94042 4.06375 3.55206 3.9318C4.1637 3.79986 4.78522 3.73389 5.41663 3.73389C6.22753 3.73389 7.01973 3.84473 7.79323 4.06643C8.56673 4.28811 9.30231 4.6153 9.99996 5.04799C10.6976 4.6153 11.4332 4.28811 12.2067 4.06643C12.9802 3.84473 13.7724 3.73389 14.5833 3.73389C15.2147 3.73389 15.8362 3.79986 16.4479 3.9318C17.0595 4.06375 17.6474 4.267 18.2115 4.54157C18.3856 4.61102 18.5189 4.72453 18.6113 4.88212C18.7037 5.0397 18.7499 5.20823 18.7499 5.38772V14.4357C18.7499 14.7659 18.6105 15.0183 18.3317 15.1929C18.0528 15.3676 17.7595 15.3866 17.4519 15.2498C17.0021 15.0362 16.536 14.8743 16.0536 14.7643C15.5713 14.6542 15.0812 14.5992 14.5833 14.5992C13.9262 14.5992 13.2844 14.6817 12.6578 14.8468C12.0312 15.0119 11.431 15.2568 10.8573 15.5816C10.7312 15.6489 10.5974 15.7029 10.4559 15.7434C10.3143 15.784 10.1623 15.8043 9.99996 15.8043ZM11.6185 7.38451C11.6185 7.29157 11.6517 7.19648 11.7179 7.09926C11.7841 7.00204 11.8595 6.93527 11.9439 6.89895C12.3573 6.73334 12.7828 6.6078 13.2203 6.52235C13.6578 6.43687 14.1121 6.39414 14.5833 6.39414C14.8557 6.39414 15.1193 6.41016 15.3741 6.4422C15.629 6.47426 15.8856 6.51806 16.1442 6.57362C16.2425 6.59605 16.3274 6.64946 16.399 6.73387C16.4706 6.81827 16.5064 6.91656 16.5064 7.02874C16.5064 7.21677 16.4473 7.35432 16.3293 7.44139C16.2112 7.52846 16.0582 7.54955 15.8701 7.50468C15.6704 7.46301 15.4628 7.4331 15.2476 7.41495C15.0323 7.39678 14.8109 7.3877 14.5833 7.3877C14.1794 7.3877 13.7839 7.42643 13.3966 7.50389C13.0093 7.58135 12.6399 7.68631 12.2884 7.81878C12.0918 7.89464 11.931 7.89037 11.806 7.80597C11.681 7.72157 11.6185 7.58108 11.6185 7.38451ZM11.6185 11.9358C11.6185 11.8428 11.6517 11.7464 11.7179 11.6465C11.7841 11.5466 11.8595 11.4785 11.9439 11.4422C12.3466 11.2766 12.7721 11.1524 13.2203 11.0696C13.6685 10.9868 14.1228 10.9454 14.5833 10.9454C14.8557 10.9454 15.1193 10.9614 15.3741 10.9935C15.629 11.0255 15.8856 11.0693 16.1442 11.1249C16.2425 11.1473 16.3274 11.2008 16.399 11.2852C16.4706 11.3695 16.5064 11.4678 16.5064 11.58C16.5064 11.768 16.4473 11.9056 16.3293 11.9927C16.2112 12.0797 16.0582 12.1008 15.8701 12.056C15.6704 12.0143 15.4628 11.9844 15.2476 11.9662C15.0323 11.9481 14.8109 11.939 14.5833 11.939C14.1848 11.939 13.7932 11.9769 13.4086 12.0528C13.024 12.1286 12.6559 12.2355 12.3044 12.3733C12.1079 12.4545 11.9444 12.4523 11.8141 12.3669C11.6837 12.2814 11.6185 12.1377 11.6185 11.9358ZM11.6185 9.66816C11.6185 9.57521 11.6517 9.48013 11.7179 9.38291C11.7841 9.28569 11.8595 9.21891 11.9439 9.1826C12.3573 9.017 12.7828 8.89146 13.2203 8.80599C13.6578 8.72052 14.1121 8.67778 14.5833 8.67778C14.8557 8.67778 15.1193 8.69381 15.3741 8.72587C15.629 8.75791 15.8856 8.80171 16.1442 8.85726C16.2425 8.87971 16.3274 8.93312 16.399 9.01751C16.4706 9.10191 16.5064 9.20021 16.5064 9.31239C16.5064 9.50041 16.4473 9.63796 16.3293 9.72503C16.2112 9.8121 16.0582 9.83321 15.8701 9.78834C15.6704 9.74668 15.4628 9.71676 15.2476 9.69859C15.0323 9.68043 14.8109 9.67135 14.5833 9.67135C14.1794 9.67135 13.7839 9.71007 13.3966 9.78753C13.0093 9.86499 12.6399 9.96996 12.2884 10.1024C12.0918 10.1783 11.931 10.174 11.806 10.0896C11.681 10.0052 11.6185 9.86474 11.6185 9.66816Z" fill="#6B7385"/>
</svg>
