<svg width="18" height="18" viewBox="0 0 18 18" fill="none" xmlns="http://www.w3.org/2000/svg">
<g id="pinterest-fill" clip-path="url(#clip0_369_405)">
<path id="Vector" d="M10.0276 1.57099C8.23302 1.32413 6.40976 1.7349 4.89444 2.72745C3.37913 3.72001 2.27411 5.22731 1.78342 6.97103C1.29274 8.71476 1.44953 10.5771 2.22484 12.2143C3.00016 13.8514 4.34164 15.1528 6.00157 15.878C5.95668 15.3018 5.99788 14.7222 6.12382 14.1582C6.26257 13.529 7.09582 10.061 7.09582 10.061C6.9299 9.68906 6.84698 9.28545 6.85282 8.87823C6.85282 7.76448 7.49557 6.93349 8.29507 6.93349C8.4387 6.93139 8.5811 6.96026 8.71258 7.01811C8.84406 7.07596 8.96154 7.16145 9.05703 7.26875C9.15253 7.37606 9.22379 7.50267 9.26599 7.63998C9.30819 7.77729 9.32032 7.92207 9.30157 8.06449C9.30157 8.73949 8.86807 9.76099 8.64157 10.7195C8.59681 10.8953 8.59397 11.0791 8.63328 11.2562C8.67259 11.4333 8.75295 11.5987 8.86789 11.739C8.98283 11.8793 9.12913 11.9907 9.295 12.0641C9.46086 12.1376 9.64166 12.171 9.82282 12.1617C11.2463 12.1617 12.2003 10.3385 12.2003 8.18598C12.2003 6.53598 11.1076 5.29998 9.09307 5.29998C8.6111 5.28126 8.13036 5.36068 7.68002 5.53343C7.22968 5.70617 6.81916 5.96864 6.47336 6.3049C6.12756 6.64116 5.85371 7.04419 5.66844 7.48952C5.48316 7.93484 5.39033 8.41318 5.39557 8.89548C5.3741 9.43048 5.5467 9.95521 5.88157 10.373C5.94415 10.4197 5.98984 10.4855 6.01175 10.5604C6.03367 10.6354 6.03062 10.7154 6.00307 10.7885C5.96857 10.9265 5.88157 11.2557 5.84707 11.3765C5.83989 11.4174 5.8232 11.4561 5.79834 11.4894C5.77347 11.5228 5.74113 11.5498 5.70392 11.5683C5.66671 11.5868 5.62566 11.5964 5.58409 11.5961C5.54252 11.5959 5.50158 11.5859 5.46457 11.567C4.42657 11.1515 3.93757 10.0092 3.93757 8.70499C3.93757 6.56974 5.72557 4.01373 9.30307 4.01373C12.1501 4.01373 14.0431 6.09648 14.0431 8.32399C14.0431 11.2557 12.4103 13.46 9.99757 13.46C9.63696 13.4715 9.27927 13.3919 8.95757 13.2286C8.63587 13.0652 8.36055 12.8234 8.15707 12.5255C8.15707 12.5255 7.72357 14.2625 7.63807 14.591C7.46354 15.1585 7.206 15.6971 6.87382 16.1892C7.56607 16.3992 8.28532 16.5042 9.00832 16.5012C9.99351 16.502 10.9692 16.3085 11.8794 15.9317C12.7897 15.5549 13.6167 15.0022 14.3131 14.3053C15.0095 13.6084 15.5616 12.781 15.9378 11.8705C16.3139 10.96 16.5068 9.98417 16.5053 8.99899C16.5044 7.18773 15.8482 5.43798 14.6578 4.07282C13.4674 2.70766 11.8233 1.81928 10.0291 1.57173L10.0276 1.57099Z" fill="white"/>
</g>
<defs>
<clipPath id="clip0_369_405">
<rect width="18" height="18" fill="white"/>
</clipPath>
</defs>
</svg>
