<svg width="20" height="20" viewBox="0 0 20 20" fill="none" xmlns="http://www.w3.org/2000/svg">
<g id="call_made_FILL0_wght300_GRAD0_opsz24 1">
<path id="Vector" d="M14.1664 6.71166L5.06708 15.811C4.95169 15.9264 4.80667 15.9854 4.632 15.9881C4.45732 15.9908 4.30962 15.9317 4.1889 15.811C4.06817 15.6903 4.00781 15.5439 4.00781 15.3719C4.00781 15.1999 4.06817 15.0536 4.1889 14.9328L13.2882 5.83348H8.12475C7.94768 5.83348 7.79925 5.77355 7.67946 5.6537C7.55967 5.53387 7.49977 5.38537 7.49977 5.2082C7.49977 5.03105 7.55967 4.88265 7.67946 4.763C7.79925 4.64333 7.94768 4.5835 8.12475 4.5835H14.6632C14.8766 4.5835 15.0555 4.65568 15.1999 4.80006C15.3442 4.94442 15.4164 5.1233 15.4164 5.33671V11.8752C15.4164 12.0522 15.3565 12.2007 15.2366 12.3205C15.1168 12.4402 14.9683 12.5001 14.7911 12.5001C14.614 12.5001 14.4656 12.4402 14.3459 12.3205C14.2263 12.2007 14.1664 12.0522 14.1664 11.8752V6.71166Z" fill="black"/>
</g>
</svg>
