<svg width="18" height="18" viewBox="0 0 18 18" fill="none" xmlns="http://www.w3.org/2000/svg">
<path d="M16.4849 8.55751C16.2299 4.20751 12.2774 0.855017 7.72491 1.60502C4.58991 2.12252 2.07741 4.665 1.58991 7.8C1.30491 9.615 1.67993 11.3325 2.49743 12.75L1.82992 15.2325C1.67992 15.795 2.1974 16.305 2.7524 16.1475L5.19741 15.4725C6.30741 16.125 7.60491 16.5 8.99241 16.5C13.2224 16.5 16.7324 12.7725 16.4849 8.55751ZM12.6599 11.79C12.5924 11.925 12.5099 12.0525 12.4049 12.1725C12.2174 12.375 12.0149 12.525 11.7899 12.615C11.5649 12.7125 11.3174 12.7575 11.0549 12.7575C10.6724 12.7575 10.2599 12.6675 9.83241 12.48C9.39741 12.2925 8.96993 12.045 8.54243 11.7375C8.10743 11.4225 7.70242 11.07 7.31242 10.6875C6.92242 10.2975 6.5774 9.885 6.2624 9.4575C5.9549 9.03 5.70741 8.6025 5.52741 8.175C5.34741 7.7475 5.25742 7.33501 5.25742 6.94501C5.25742 6.69001 5.30242 6.44251 5.39242 6.21751C5.48242 5.98501 5.62493 5.77502 5.82743 5.58752C6.06743 5.34752 6.32991 5.23501 6.60741 5.23501C6.71241 5.23501 6.81739 5.25751 6.91489 5.30251C7.01239 5.34751 7.10241 5.41501 7.16991 5.51251L8.03989 6.7425C8.10739 6.84 8.1599 6.9225 8.1899 7.005C8.2274 7.0875 8.24241 7.1625 8.24241 7.2375C8.24241 7.3275 8.21242 7.41751 8.15992 7.50751C8.10742 7.59751 8.0399 7.6875 7.9499 7.7775L7.66489 8.0775C7.61989 8.1225 7.60493 8.16751 7.60493 8.22751C7.60493 8.25751 7.6124 8.2875 7.6199 8.3175C7.6349 8.3475 7.64243 8.37001 7.64993 8.39251C7.71743 8.52001 7.8374 8.6775 8.0024 8.8725C8.1749 9.0675 8.35493 9.27 8.54993 9.465C8.75243 9.6675 8.94743 9.8475 9.14993 10.02C9.34493 10.185 9.5099 10.2975 9.6374 10.365C9.6599 10.3725 9.68242 10.3875 9.70492 10.395C9.73492 10.41 9.76492 10.41 9.80242 10.41C9.86992 10.41 9.91494 10.3875 9.95994 10.3425L10.2449 10.0575C10.3424 9.96001 10.4324 9.89251 10.5149 9.84751C10.6049 9.79501 10.6874 9.765 10.7849 9.765C10.8599 9.765 10.9349 9.78 11.0174 9.8175C11.0999 9.855 11.1899 9.90001 11.2799 9.96751L12.5249 10.8525C12.6224 10.92 12.6899 11.0025 12.7349 11.0925C12.7724 11.19 12.7949 11.28 12.7949 11.385C12.7499 11.5125 12.7199 11.655 12.6599 11.79Z" fill="white"/>
</svg>
