<svg width="162" height="47" viewBox="0 0 162 47" fill="none" xmlns="http://www.w3.org/2000/svg">
<g clip-path="url(#clip0_115_99)">
<path d="M12.6755 32.1865C13.2006 29.3801 10.89 28.2968 10.7864 28.2575C10.7317 28.2295 10.6799 28.2028 10.6281 28.1733C10.5983 28.1564 10.5752 28.1301 10.5627 28.0988C10.5501 28.0675 10.5489 28.0329 10.5591 28.0007C10.703 27.5012 10.6425 27.0185 10.3274 26.7126C9.96487 26.359 9.36491 26.3267 8.77214 26.5723C8.74125 26.5856 8.70669 26.5886 8.67388 26.5808C8.64106 26.5729 8.61186 26.5546 8.59086 26.5288C4.71772 21.5404 13.0251 12.7031 13.0251 12.7031L12.9402 12.7326L12.9863 12.6821C12.9988 12.6674 13.0143 12.6554 13.0317 12.6468C13.0492 12.6382 13.0683 12.6331 13.0878 12.632C13.1073 12.6308 13.1269 12.6335 13.1453 12.6399C13.1637 12.6464 13.1806 12.6564 13.1949 12.6694C13.2107 12.6816 13.2237 12.6968 13.2331 12.7142C13.2424 12.7315 13.248 12.7506 13.2493 12.7702C13.2507 12.7897 13.2478 12.8094 13.2409 12.8278C13.234 12.8462 13.2232 12.863 13.2093 12.8771C12.5676 13.5787 9.09011 17.5077 8.15347 21.3763C8.14196 21.4049 8.14045 21.4365 8.14917 21.4661C8.15789 21.4957 8.17636 21.5217 8.20173 21.5401C8.22709 21.5584 8.25795 21.5681 8.28953 21.5677C8.32111 21.5673 8.35167 21.5567 8.37648 21.5376L8.58222 21.4198L16.9774 16.6138C16.9998 16.6018 17.0183 16.5838 17.0306 16.5619L21.9584 8.37005L26.8645 0.221706C26.8918 0.195098 26.9071 0.159008 26.9071 0.121378C26.9071 0.0837475 26.8918 0.0476583 26.8645 0.0210496C26.851 0.00787426 26.835 -0.00257698 26.8173 -0.0097074C26.7997 -0.0168378 26.7808 -0.0205078 26.7616 -0.0205078C26.7231 -0.0205078 26.6861 -0.00555917 26.6588 0.0210496L9.903 9.60627C9.8812 9.6191 9.86293 9.63692 9.84977 9.65819L0.0216145 25.9998C-0.00566859 26.0264 -0.0209961 26.0625 -0.0209961 26.1001C-0.0209961 26.1377 -0.00566859 26.1738 0.0216145 26.2004C0.0488977 26.2271 0.0859016 26.242 0.124486 26.242C0.16307 26.242 0.200074 26.2271 0.227357 26.2004L5.80686 23.0124C5.83025 22.9967 5.85785 22.9882 5.8862 22.9878C5.91455 22.9874 5.94239 22.9952 5.96622 23.0102C5.99004 23.0252 6.0088 23.0467 6.02012 23.0721C6.03145 23.0974 6.03484 23.1255 6.02987 23.1527C5.79103 25.019 6.47444 26.4895 7.3377 27.7664C7.35166 27.787 7.35981 27.8108 7.36133 27.8354C7.36285 27.8601 7.35767 27.8847 7.34633 27.9067C7.05858 28.5073 7.08592 29.1233 7.46287 29.4909C7.75062 29.7716 8.19232 29.8516 8.65992 29.7477C8.68974 29.7406 8.72107 29.7424 8.74982 29.7529C8.77858 29.7634 8.8034 29.7821 8.82106 29.8067C8.90163 29.9203 8.97788 30.0326 9.05126 30.1448C10.0512 31.6701 9.43828 33.6107 9.13615 34.3544C9.1219 34.3809 9.11672 34.4111 9.12134 34.4407C9.12596 34.4703 9.14015 34.4976 9.16183 34.5188C9.18352 34.5399 9.21157 34.5538 9.24189 34.5583C9.27221 34.5628 9.30321 34.5577 9.33038 34.5438L10.8382 33.9755C12.6784 33.2852 12.6755 32.1865 12.6755 32.1865Z" fill="white"/>
<path d="M19.3553 13.3022L17.2418 16.8102L17.1742 16.8495L13.6392 18.8771L8.97615 21.5432C8.95524 21.5536 8.93725 21.5687 8.92374 21.5874C8.91022 21.6061 8.9016 21.6278 8.89863 21.6505C8.89565 21.6731 8.8984 21.6962 8.90665 21.7176C8.91489 21.739 8.92838 21.7581 8.94593 21.7733L11.5717 24.3341C11.7707 24.515 12.0306 24.6188 12.3026 24.626C13.9269 24.7481 17.1871 22.8285 20.2977 19.7948C23.4083 16.7611 25.3765 13.5815 25.2514 11.9973C25.2433 11.7322 25.137 11.4789 24.9521 11.2844L22.3264 8.72501C22.3108 8.70789 22.2912 8.69473 22.2693 8.68669C22.2473 8.67865 22.2237 8.67597 22.2004 8.67887C22.1771 8.68178 22.155 8.69018 22.1358 8.70336C22.1166 8.71654 22.101 8.73409 22.0904 8.75448L19.3553 13.3022Z" fill="white"/>
<path d="M45.5253 13.2984C45.5253 13.0951 45.4841 12.8938 45.4041 12.7061C45.3242 12.5184 45.2069 12.3479 45.0592 12.2045C44.9115 12.0611 44.7362 11.9475 44.5433 11.8704C44.3505 11.7932 44.1439 11.754 43.9355 11.7549H26.5121C26.5121 11.8096 26.5294 11.8643 26.5337 11.9233C26.7279 14.3761 23.7886 18.1801 21.2103 20.6932C18.632 23.2064 14.7359 26.0731 12.2181 25.8851C12.1576 25.8851 12.1015 25.871 12.0454 25.864V27.4945C12.0455 27.5167 12.0507 27.5386 12.0607 27.5585C12.0707 27.5784 12.0851 27.5959 12.103 27.6096C13.1806 28.4122 14.3632 29.995 13.9532 32.3524C13.8658 33.0189 13.5451 33.6355 13.0453 34.098C12.7702 34.3638 12.4595 34.5923 12.1217 34.7771C12.0985 34.7894 12.0793 34.8078 12.0661 34.83C12.0529 34.8523 12.0463 34.8777 12.0468 34.9034V42.9704C12.0468 43.35 12.2015 43.714 12.4767 43.9824C12.7519 44.2508 13.1252 44.4016 13.5144 44.4016H26.2445C26.63 44.4012 26.9997 44.2516 27.2721 43.9856C27.5446 43.7196 27.6977 43.359 27.6977 42.983V27.3809C27.6976 27.3618 27.7016 27.343 27.7093 27.3255C27.7169 27.308 27.7282 27.2922 27.7423 27.2791C27.7564 27.266 27.7732 27.2558 27.7915 27.2491C27.8097 27.2425 27.8292 27.2396 27.8487 27.2406H40.3242C40.3437 27.2396 40.3632 27.2425 40.3815 27.2491C40.3998 27.2558 40.4165 27.266 40.4306 27.2791C40.4447 27.2922 40.456 27.308 40.4637 27.3255C40.4713 27.343 40.4753 27.3618 40.4753 27.3809V30.7303C40.4753 30.7493 40.4713 30.7682 40.4637 30.7857C40.456 30.8032 40.4447 30.819 40.4306 30.8321C40.4165 30.8452 40.3998 30.8554 40.3815 30.862C40.3632 30.8686 40.3437 30.8716 40.3242 30.8706H31.578C31.5585 30.8706 31.5392 30.8744 31.5212 30.8819C31.5033 30.8894 31.4871 30.9004 31.4736 30.9142C31.4602 30.9279 31.4497 30.9443 31.4429 30.9621C31.4361 30.9799 31.4331 30.9989 31.4341 31.018V34.3646C31.4341 34.4018 31.4493 34.4375 31.4762 34.4638C31.5032 34.4901 31.5398 34.5049 31.578 34.5049H37.4078C37.446 34.5049 37.4826 34.5197 37.5096 34.546C37.5365 34.5723 37.5517 34.608 37.5517 34.6452V37.9918C37.5517 38.029 37.5365 38.0647 37.5096 38.091C37.4826 38.1174 37.446 38.1321 37.4078 38.1321H31.578C31.5398 38.1321 31.5032 38.1469 31.4762 38.1732C31.4493 38.1996 31.4341 38.2352 31.4341 38.2725V41.605C31.4341 41.6423 31.4493 41.678 31.4762 41.7043C31.5032 41.7306 31.5398 41.7454 31.578 41.7454H40.3242C40.3443 41.7444 40.3644 41.7475 40.3832 41.7545C40.402 41.7616 40.4191 41.7724 40.4333 41.7863C40.4476 41.8002 40.4586 41.8168 40.4659 41.8351C40.4731 41.8535 40.4763 41.8731 40.4753 41.8927V44.2262C40.4753 44.2634 40.4904 44.2991 40.5174 44.3254C40.5444 44.3518 40.581 44.3665 40.6191 44.3665H44.0592C44.251 44.3667 44.441 44.33 44.6183 44.2585C44.7955 44.187 44.9566 44.0821 45.0922 43.9498C45.2279 43.8175 45.3354 43.6604 45.4088 43.4875C45.4821 43.3147 45.5197 43.1294 45.5196 42.9423L45.5253 13.2984Z" fill="white"/>
</g>
<path d="M56.7614 39.21V20.0574H68.6846V23.78H60.6729V27.7184H67.066V31.441H60.6729V35.4874H68.6846V39.21H56.7614ZM76.7706 39.5067C74.9903 39.5067 73.4886 38.8143 72.2658 37.4296C71.0429 36.0448 70.4314 34.3904 70.4314 32.4661C70.4314 30.5419 71.0429 28.8874 72.2658 27.5026C73.4886 26.1179 74.9903 25.4255 76.7706 25.4255C77.6339 25.4255 78.4072 25.6054 79.0905 25.965C79.7739 26.3247 80.2954 26.7473 80.6551 27.2329V18.9784H84.3507V39.21H80.6551V37.6993C80.2954 38.1849 79.7739 38.6075 79.0905 38.9672C78.4072 39.3269 77.6339 39.5067 76.7706 39.5067ZM75.0712 35.1097C75.7006 35.7931 76.5279 36.1348 77.5529 36.1348C78.578 36.1348 79.3962 35.7931 80.0077 35.1097C80.6371 34.4263 80.9518 33.5451 80.9518 32.4661C80.9518 31.3871 80.6371 30.5059 80.0077 29.8225C79.3962 29.1391 78.578 28.7975 77.5529 28.7975C76.5279 28.7975 75.7006 29.1391 75.0712 29.8225C74.4597 30.5059 74.154 31.3871 74.154 32.4661C74.154 33.5451 74.4597 34.4263 75.0712 35.1097ZM92.853 39.5067C91.2525 39.5067 90.0026 38.9672 89.1035 37.8882C88.2223 36.8092 87.7817 35.3615 87.7817 33.5451V25.7223H91.4773V32.9247C91.4773 35.0647 92.2416 36.1348 93.7702 36.1348C94.6334 36.1348 95.3078 35.8111 95.7934 35.1637C96.2969 34.5162 96.5487 33.5631 96.5487 32.3043V25.7223H100.244V39.21H96.5487V37.6724C95.7214 38.8952 94.4895 39.5067 92.853 39.5067ZM110.033 39.5067C108.001 39.5067 106.311 38.8323 104.962 37.4835C103.613 36.1168 102.939 34.4443 102.939 32.4661C102.939 30.4879 103.613 28.8244 104.962 27.4757C106.311 26.1089 108.001 25.4255 110.033 25.4255C111.832 25.4255 113.333 25.9291 114.538 26.9362C115.761 27.9432 116.561 29.256 116.939 30.8746H113.109C112.515 29.4718 111.49 28.7705 110.033 28.7705C109.044 28.7705 108.235 29.1122 107.606 29.7955C106.976 30.4609 106.661 31.3511 106.661 32.4661C106.661 33.5811 106.976 34.4803 107.606 35.1637C108.235 35.829 109.044 36.1617 110.033 36.1617C111.49 36.1617 112.515 35.4604 113.109 34.0577H116.939C116.561 35.6762 115.761 36.989 114.538 37.9961C113.333 39.0031 111.832 39.5067 110.033 39.5067ZM124.926 39.5067C123.146 39.5067 121.644 38.8143 120.421 37.4296C119.198 36.0448 118.587 34.3904 118.587 32.4661C118.587 30.5419 119.198 28.8874 120.421 27.5026C121.644 26.1179 123.146 25.4255 124.926 25.4255C125.789 25.4255 126.562 25.6054 127.246 25.965C127.929 26.3247 128.451 26.7473 128.81 27.2329V25.7223H132.506V39.21H128.81V37.6993C128.451 38.1849 127.929 38.6075 127.246 38.9672C126.562 39.3269 125.789 39.5067 124.926 39.5067ZM123.226 35.1097C123.856 35.7931 124.683 36.1348 125.708 36.1348C126.733 36.1348 127.552 35.7931 128.163 35.1097C128.792 34.4263 129.107 33.5451 129.107 32.4661C129.107 31.3871 128.792 30.5059 128.163 29.8225C127.552 29.1391 126.733 28.7975 125.708 28.7975C124.683 28.7975 123.856 29.1391 123.226 29.8225C122.615 30.5059 122.309 31.3871 122.309 32.4661C122.309 33.5451 122.615 34.4263 123.226 35.1097ZM142.627 39.3718C141.116 39.3718 139.875 38.9582 138.904 38.1309C137.951 37.2857 137.475 36.0718 137.475 34.4893V28.9593H134.75V25.7223H137.475V21.9727H141.17V25.7223H144.974V28.9593H141.17V33.7609C141.17 34.5882 141.35 35.1816 141.71 35.5413C142.069 35.883 142.654 36.0538 143.463 36.0538C144.039 36.0538 144.542 35.9729 144.974 35.8111V39.0751C144.326 39.2729 143.544 39.3718 142.627 39.3718ZM153.631 39.5067C151.563 39.5067 149.863 38.8413 148.532 37.5105C147.22 36.1797 146.563 34.4893 146.563 32.4391C146.563 30.425 147.229 28.7525 148.559 27.4217C149.908 26.0909 151.608 25.4255 153.658 25.4255C155.726 25.4255 157.443 26.1359 158.81 27.5566C160.177 28.9593 160.806 30.8836 160.698 33.3293H150.178C150.25 34.1746 150.6 34.8849 151.23 35.4604C151.859 36.0179 152.723 36.2966 153.82 36.2966C154.485 36.2966 155.069 36.1707 155.573 35.919C156.094 35.6492 156.463 35.2805 156.679 34.813H160.536C160.141 36.1977 159.314 37.3307 158.055 38.2119C156.796 39.0751 155.321 39.5067 153.631 39.5067ZM153.55 28.4198C152.705 28.4198 151.994 28.6446 151.419 29.0942C150.861 29.5258 150.493 30.1282 150.313 30.9015H156.652C156.454 30.0563 156.059 29.4359 155.465 29.0402C154.89 28.6266 154.251 28.4198 153.55 28.4198Z" fill="white"/>
<defs>
<clipPath id="clip0_115_99">
<rect width="45.5252" height="44.3999" fill="white"/>
</clipPath>
</defs>
</svg>
