<svg width="20" height="20" viewBox="0 0 20 20" fill="none" xmlns="http://www.w3.org/2000/svg">
<g id="star_FILL0_wght300_GRAD0_opsz24 (1) 1">
<path id="Vector" d="M10.0002 13.7402L6.75819 15.6953C6.63746 15.7658 6.51648 15.7955 6.39523 15.7843C6.27396 15.7731 6.16419 15.7322 6.0659 15.6617C5.96762 15.5912 5.89177 15.499 5.83835 15.3852C5.78492 15.2715 5.77637 15.1457 5.81271 15.0078L6.67327 11.3268L3.8111 8.84922C3.70427 8.75628 3.63617 8.64865 3.60679 8.52633C3.57742 8.40399 3.58516 8.28514 3.63002 8.16976C3.6749 8.05438 3.73953 7.96009 3.82394 7.88691C3.90834 7.81373 4.02372 7.76592 4.17008 7.74349L7.94731 7.41337L9.41364 3.93741C9.46706 3.80815 9.54799 3.71253 9.65642 3.65055C9.76486 3.5886 9.87944 3.55762 10.0002 3.55762C10.1209 3.55762 10.2355 3.5886 10.3439 3.65055C10.4523 3.71253 10.5333 3.80815 10.5867 3.93741L12.053 7.41337L15.8302 7.74349C15.9766 7.76592 16.092 7.81373 16.1764 7.88691C16.2608 7.96009 16.3254 8.05438 16.3703 8.16976C16.4152 8.28514 16.4229 8.40399 16.3935 8.52633C16.3642 8.64865 16.2961 8.75628 16.1892 8.84922L13.3271 11.3268L14.1876 15.0078C14.224 15.1457 14.2154 15.2715 14.162 15.3852C14.1086 15.499 14.0327 15.5912 13.9344 15.6617C13.8361 15.7322 13.7264 15.7731 13.6051 15.7843C13.4839 15.7955 13.3629 15.7658 13.2421 15.6953L10.0002 13.7402Z" fill="#FACA21"/>
</g>
</svg>
