<svg width="119" height="25" viewBox="0 0 119 25" fill="none" xmlns="http://www.w3.org/2000/svg">
<path d="M27.2905 18.8179C27.4913 18.894 27.7164 18.7931 27.7869 18.5902C28.4886 16.5713 28.7191 14.4166 28.4583 12.2917C28.1817 10.0381 27.3608 7.88555 26.0665 6.01981C24.7722 4.15407 23.0432 2.63115 21.0289 1.58242C19.0145 0.53369 16.7752 -0.00935784 14.504 0.000122016C12.2329 0.00960187 9.9982 0.571325 7.99266 1.63683C5.98712 2.70234 4.27098 4.23964 2.99229 6.11612C1.71359 7.9926 0.910728 10.1519 0.652964 12.4078C0.409925 14.5348 0.658362 16.6874 1.37694 18.7005C1.44913 18.9027 1.67502 19.0018 1.87522 18.924L6.29759 17.2064C6.49779 17.1286 6.59613 16.9036 6.52762 16.7001C6.1313 15.523 5.99809 14.2715 6.13945 13.0344C6.29554 11.6683 6.78172 10.3607 7.55605 9.22439C8.33038 8.08807 9.3696 7.15714 10.5841 6.51191C11.7985 5.86668 13.1518 5.52653 14.5271 5.52079C15.9024 5.51505 17.2585 5.84389 18.4783 6.47896C19.6981 7.11403 20.7451 8.03625 21.5288 9.16606C22.3126 10.2959 22.8097 11.5994 22.9772 12.9641C23.1289 14.2 23.0062 15.4525 22.6197 16.6329C22.5529 16.837 22.6531 17.0612 22.8539 17.1373L27.2905 18.8179Z" fill="url(#paint0_linear_2532_1412)"/>
<path d="M27.2905 18.8179C27.4913 18.894 27.7164 18.7931 27.7869 18.5902C28.4886 16.5713 28.7191 14.4166 28.4583 12.2917C28.1817 10.0381 27.3608 7.88555 26.0665 6.01981C24.7722 4.15407 23.0432 2.63115 21.0289 1.58242C19.0145 0.53369 16.7752 -0.00935784 14.504 0.000122016C12.2329 0.00960187 9.9982 0.571325 7.99266 1.63683C5.98712 2.70234 4.27098 4.23964 2.99229 6.11612C1.71359 7.9926 0.910728 10.1519 0.652964 12.4078C0.409925 14.5348 0.658362 16.6874 1.37694 18.7005C1.44913 18.9027 1.67502 19.0018 1.87522 18.924L6.29759 17.2064C6.49779 17.1286 6.59613 16.9036 6.52762 16.7001C6.1313 15.523 5.99809 14.2715 6.13945 13.0344C6.29554 11.6683 6.78172 10.3607 7.55605 9.22439C8.33038 8.08807 9.3696 7.15714 10.5841 6.51191C11.7985 5.86668 13.1518 5.52653 14.5271 5.52079C15.9024 5.51505 17.2585 5.84389 18.4783 6.47896C19.6981 7.11403 20.7451 8.03625 21.5288 9.16606C22.3126 10.2959 22.8097 11.5994 22.9772 12.9641C23.1289 14.2 23.0062 15.4525 22.6197 16.6329C22.5529 16.837 22.6531 17.0612 22.8539 17.1373L27.2905 18.8179Z" fill="url(#paint1_linear_2532_1412)"/>
<path fill-rule="evenodd" clip-rule="evenodd" d="M2.35903 21.0185C2.24293 20.8188 2.33362 20.565 2.54715 20.4771L14.365 15.6113C14.4598 15.5723 14.5662 15.5723 14.6611 15.6113L26.4102 20.4488C26.6234 20.5366 26.7142 20.7898 26.5987 20.9894C25.824 22.3287 24.8337 23.5278 23.6753 24.5392C23.566 24.6347 23.4119 24.6584 23.2777 24.6031L14.6611 21.0554C14.5662 21.0163 14.4598 21.0163 14.365 21.0554L5.69051 24.6269C5.55668 24.682 5.40301 24.6586 5.29372 24.5637C4.13157 23.5545 3.13748 22.3569 2.35903 21.0185Z" fill="url(#paint2_linear_2532_1412)"/>
<path d="M37.7005 17.539C37.0472 17.539 36.4335 17.4247 35.8595 17.196C35.2902 16.9627 34.7885 16.622 34.3545 16.174C33.9252 15.726 33.5892 15.1777 33.3465 14.529C33.1038 13.8757 32.9825 13.129 32.9825 12.289C32.9825 11.1877 33.1878 10.2474 33.5985 9.46806C34.0092 8.68406 34.5715 8.0844 35.2855 7.66906C35.9995 7.24906 36.8045 7.03906 37.7005 7.03906C38.9418 7.03906 39.9242 7.3284 40.6475 7.90706C41.3755 8.48106 41.8678 9.2884 42.1245 10.329L40.4025 10.602C40.2112 10.0047 39.8985 9.52873 39.4645 9.17406C39.0305 8.81473 38.4775 8.63506 37.8055 8.63506C37.1288 8.62573 36.5665 8.77273 36.1185 9.07606C35.6705 9.3794 35.3322 9.8064 35.1035 10.357C34.8795 10.9077 34.7675 11.5517 34.7675 12.289C34.7675 13.0264 34.8795 13.668 35.1035 14.214C35.3275 14.7554 35.6635 15.1777 36.1115 15.481C36.5642 15.7844 37.1288 15.9407 37.8055 15.95C38.3142 15.9547 38.7598 15.8637 39.1425 15.677C39.5252 15.4857 39.8378 15.1987 40.0805 14.816C40.3232 14.4287 40.4865 13.9457 40.5705 13.367H38.7925V12.044H42.3625C42.3718 12.1187 42.3788 12.2284 42.3835 12.373C42.3882 12.5177 42.3905 12.604 42.3905 12.632C42.3905 13.584 42.2015 14.431 41.8235 15.173C41.4502 15.9104 40.9135 16.489 40.2135 16.909C39.5135 17.329 38.6758 17.539 37.7005 17.539ZM43.7964 17.329V9.76906H45.2874V11.61L45.1054 11.372C45.1987 11.12 45.3224 10.8914 45.4764 10.686C45.6351 10.476 45.8241 10.3034 46.0434 10.168C46.2301 10.042 46.4354 9.94406 46.6594 9.87406C46.8881 9.7994 47.1214 9.75506 47.3594 9.74106C47.5974 9.7224 47.8284 9.73173 48.0524 9.76906V11.344C47.8284 11.2787 47.5694 11.2577 47.2754 11.281C46.9861 11.3044 46.7247 11.386 46.4914 11.526C46.2581 11.652 46.0667 11.813 45.9174 12.009C45.7727 12.205 45.6654 12.429 45.5954 12.681C45.5254 12.9284 45.4904 13.1967 45.4904 13.486V17.329H43.7964ZM52.5905 17.539C51.8345 17.539 51.1742 17.3687 50.6095 17.028C50.0448 16.6874 49.6062 16.2184 49.2935 15.621C48.9855 15.019 48.8315 14.3284 48.8315 13.549C48.8315 12.7557 48.9902 12.0604 49.3075 11.463C49.6248 10.8657 50.0658 10.399 50.6305 10.063C51.1952 9.72706 51.8485 9.55906 52.5905 9.55906C53.3512 9.55906 54.0138 9.7294 54.5785 10.07C55.1432 10.4107 55.5818 10.882 55.8945 11.484C56.2072 12.0814 56.3635 12.7697 56.3635 13.549C56.3635 14.333 56.2048 15.026 55.8875 15.628C55.5748 16.2254 55.1362 16.6944 54.5715 17.035C54.0068 17.371 53.3465 17.539 52.5905 17.539ZM52.5905 15.957C53.2625 15.957 53.7618 15.733 54.0885 15.285C54.4152 14.837 54.5785 14.2584 54.5785 13.549C54.5785 12.8164 54.4128 12.233 54.0815 11.799C53.7502 11.3604 53.2532 11.141 52.5905 11.141C52.1378 11.141 51.7645 11.2437 51.4705 11.449C51.1812 11.6497 50.9665 11.932 50.8265 12.296C50.6865 12.6554 50.6165 13.073 50.6165 13.549C50.6165 14.2817 50.7822 14.8674 51.1135 15.306C51.4495 15.74 51.9418 15.957 52.5905 15.957ZM59.2423 17.329L56.9323 9.75506L58.5843 9.76906L60.0613 14.62L61.5593 9.76906H62.9803L64.4713 14.62L65.9553 9.76906H67.6073L65.2973 17.329H63.9813L62.2663 12.128L60.5583 17.329H59.2423ZM72.9306 17.539C72.128 17.539 71.421 17.3757 70.8096 17.049C70.203 16.7224 69.727 16.2627 69.3816 15.67C69.041 15.0774 68.8706 14.382 68.8706 13.584V7.26306L70.5786 7.24906V13.542C70.5786 13.92 70.6416 14.2584 70.7676 14.557C70.8983 14.8557 71.0733 15.11 71.2926 15.32C71.512 15.5254 71.764 15.6817 72.0486 15.789C72.3333 15.8964 72.6273 15.95 72.9306 15.95C73.2433 15.95 73.5396 15.8964 73.8196 15.789C74.1043 15.677 74.3563 15.5184 74.5756 15.313C74.795 15.103 74.9676 14.8487 75.0936 14.55C75.2196 14.2514 75.2826 13.9154 75.2826 13.542V7.24906H76.9906V13.584C76.9906 14.382 76.8181 15.0774 76.4726 15.67C76.132 16.2627 75.656 16.7224 75.0446 17.049C74.438 17.3757 73.7333 17.539 72.9306 17.539ZM82.5798 17.539C81.8425 17.539 81.2241 17.364 80.7248 17.014C80.2255 16.664 79.8498 16.188 79.5978 15.586C79.3458 14.9794 79.2198 14.3004 79.2198 13.549C79.2198 12.7884 79.3458 12.107 79.5978 11.505C79.8498 10.903 80.2185 10.4294 80.7038 10.084C81.1938 9.73406 81.7981 9.55906 82.5168 9.55906C83.2308 9.55906 83.8491 9.73406 84.3718 10.084C84.8992 10.4294 85.3075 10.903 85.5968 11.505C85.8861 12.1024 86.0308 12.7837 86.0308 13.549C86.0308 14.305 85.8885 14.984 85.6038 15.586C85.3191 16.188 84.9179 16.664 84.3998 17.014C83.8818 17.364 83.2752 17.539 82.5798 17.539ZM78.9328 20.689V9.76906H80.4238V15.075H80.6338V20.689H78.9328ZM82.3208 16.027C82.7595 16.027 83.1211 15.9174 83.4058 15.698C83.6905 15.4787 83.9005 15.1824 84.0358 14.809C84.1758 14.431 84.2458 14.011 84.2458 13.549C84.2458 13.0917 84.1758 12.6764 84.0358 12.303C83.8958 11.925 83.6788 11.6264 83.3848 11.407C83.0909 11.183 82.7175 11.071 82.2648 11.071C81.8355 11.071 81.4855 11.176 81.2148 11.386C80.9441 11.5914 80.7435 11.8807 80.6128 12.254C80.4868 12.6227 80.4238 13.0544 80.4238 13.549C80.4238 14.039 80.4868 14.4707 80.6128 14.844C80.7435 15.2174 80.9465 15.509 81.2218 15.719C81.5018 15.9244 81.8681 16.027 82.3208 16.027ZM90.5165 17.329V7.24906H92.2035V15.747H96.6555V17.329H90.5165ZM97.8413 17.329V7.24906H99.3603L102.846 14.389L106.332 7.24906H107.851V17.329H106.276V10.868L103.182 17.329H102.51L99.4233 10.868V17.329H97.8413ZM113.549 17.539C112.812 17.539 112.147 17.4107 111.554 17.154C110.966 16.8974 110.481 16.531 110.098 16.055C109.72 15.5744 109.48 15.005 109.377 14.347L111.127 14.081C111.276 14.6784 111.582 15.1404 112.044 15.467C112.511 15.7937 113.047 15.957 113.654 15.957C114.013 15.957 114.352 15.901 114.669 15.789C114.986 15.677 115.243 15.5137 115.439 15.299C115.64 15.0844 115.74 14.8207 115.74 14.508C115.74 14.368 115.717 14.2397 115.67 14.123C115.623 14.0017 115.553 13.8944 115.46 13.801C115.371 13.7077 115.255 13.6237 115.11 13.549C114.97 13.4697 114.807 13.402 114.62 13.346L112.016 12.576C111.792 12.5107 111.549 12.4244 111.288 12.317C111.031 12.205 110.786 12.0534 110.553 11.862C110.324 11.666 110.135 11.4187 109.986 11.12C109.841 10.8167 109.769 10.4434 109.769 10.0001C109.769 9.3514 109.932 8.80773 110.259 8.36906C110.59 7.92573 111.034 7.5944 111.589 7.37506C112.149 7.15573 112.77 7.0484 113.451 7.05306C114.142 7.05773 114.758 7.17673 115.299 7.41006C115.84 7.63873 116.293 7.9724 116.657 8.41106C117.021 8.84973 117.278 9.3794 117.427 10.0001L115.614 10.315C115.539 9.9604 115.395 9.6594 115.18 9.41206C114.97 9.16006 114.711 8.96873 114.403 8.83806C114.1 8.7074 113.775 8.6374 113.43 8.62806C113.094 8.6234 112.781 8.67473 112.492 8.78206C112.207 8.88473 111.976 9.03406 111.799 9.23006C111.626 9.42606 111.54 9.65473 111.54 9.91606C111.54 10.1634 111.615 10.3664 111.764 10.525C111.913 10.679 112.098 10.8027 112.317 10.896C112.541 10.9847 112.767 11.0594 112.996 11.12L114.802 11.624C115.049 11.6894 115.327 11.778 115.635 11.89C115.943 12.002 116.239 12.1584 116.524 12.359C116.809 12.5597 117.042 12.8234 117.224 13.15C117.411 13.4767 117.504 13.892 117.504 14.396C117.504 14.9187 117.394 15.3784 117.175 15.775C116.96 16.167 116.669 16.4937 116.3 16.755C115.931 17.0164 115.509 17.2124 115.033 17.343C114.562 17.4737 114.067 17.539 113.549 17.539Z" fill="#E7E6E6"/>
<defs>
<linearGradient id="paint0_linear_2532_1412" x1="29" y1="14.996" x2="2.64189" y2="11.4632" gradientUnits="userSpaceOnUse">
<stop stop-color="#0A7EFB"/>
<stop offset="0.679244" stop-color="#8A5FEE"/>
<stop offset="1" stop-color="#E05EC8"/>
</linearGradient>
<linearGradient id="paint1_linear_2532_1412" x1="1" y1="19.4949" x2="32.8604" y2="7.62333" gradientUnits="userSpaceOnUse">
<stop stop-color="#0B8BFB"/>
<stop offset="0.56009" stop-color="#FF5496"/>
<stop offset="1" stop-color="#FFBB33"/>
</linearGradient>
<linearGradient id="paint2_linear_2532_1412" x1="4.44844" y1="24.999" x2="35.9454" y2="18.0024" gradientUnits="userSpaceOnUse">
<stop stop-color="#0B8BFB"/>
<stop offset="0.530839" stop-color="#FF5496"/>
<stop offset="1" stop-color="#FFBB33"/>
</linearGradient>
</defs>
</svg>
