<svg width="32" height="32" viewBox="0 0 32 32" fill="none" xmlns="http://www.w3.org/2000/svg">
<path d="M28.728 22.8179C28.9288 22.894 29.1539 22.7931 29.2244 22.5902C29.9261 20.5713 30.1566 18.4166 29.8958 16.2917C29.6192 14.0381 28.7983 11.8856 27.504 10.0198C26.2097 8.15407 24.4807 6.63115 22.4664 5.58242C20.452 4.53369 18.2127 3.99064 15.9415 4.00012C13.6704 4.0096 11.4357 4.57132 9.43016 5.63683C7.42462 6.70234 5.70848 8.23964 4.42979 10.1161C3.15109 11.9926 2.34823 14.1519 2.09046 16.4078C1.84742 18.5348 2.09586 20.6874 2.81444 22.7005C2.88663 22.9027 3.11252 23.0018 3.31272 22.924L7.73509 21.2064C7.93529 21.1286 8.03363 20.9036 7.96512 20.7001C7.5688 19.523 7.43559 18.2715 7.57695 17.0344C7.73304 15.6683 8.21922 14.3607 8.99355 13.2244C9.76788 12.0881 10.8071 11.1571 12.0216 10.5119C13.236 9.86668 14.5893 9.52653 15.9646 9.52079C17.3399 9.51505 18.696 9.84389 19.9158 10.479C21.1356 11.114 22.1826 12.0363 22.9663 13.1661C23.7501 14.2959 24.2472 15.5994 24.4147 16.9641C24.5664 18.2 24.4437 19.4525 24.0572 20.6329C23.9904 20.837 24.0906 21.0612 24.2914 21.1373L28.728 22.8179Z" fill="url(#paint0_linear_2548_70)"/>
<path d="M28.728 22.8179C28.9288 22.894 29.1539 22.7931 29.2244 22.5902C29.9261 20.5713 30.1566 18.4166 29.8958 16.2917C29.6192 14.0381 28.7983 11.8856 27.504 10.0198C26.2097 8.15407 24.4807 6.63115 22.4664 5.58242C20.452 4.53369 18.2127 3.99064 15.9415 4.00012C13.6704 4.0096 11.4357 4.57132 9.43016 5.63683C7.42462 6.70234 5.70848 8.23964 4.42979 10.1161C3.15109 11.9926 2.34823 14.1519 2.09046 16.4078C1.84742 18.5348 2.09586 20.6874 2.81444 22.7005C2.88663 22.9027 3.11252 23.0018 3.31272 22.924L7.73509 21.2064C7.93529 21.1286 8.03363 20.9036 7.96512 20.7001C7.5688 19.523 7.43559 18.2715 7.57695 17.0344C7.73304 15.6683 8.21922 14.3607 8.99355 13.2244C9.76788 12.0881 10.8071 11.1571 12.0216 10.5119C13.236 9.86668 14.5893 9.52653 15.9646 9.52079C17.3399 9.51505 18.696 9.84389 19.9158 10.479C21.1356 11.114 22.1826 12.0363 22.9663 13.1661C23.7501 14.2959 24.2472 15.5994 24.4147 16.9641C24.5664 18.2 24.4437 19.4525 24.0572 20.6329C23.9904 20.837 24.0906 21.0612 24.2914 21.1373L28.728 22.8179Z" fill="url(#paint1_linear_2548_70)"/>
<path fill-rule="evenodd" clip-rule="evenodd" d="M3.79653 25.0185C3.68043 24.8188 3.77112 24.565 3.98465 24.4771L15.8025 19.6113C15.8973 19.5723 16.0037 19.5723 16.0986 19.6113L27.8477 24.4488C28.0609 24.5366 28.1517 24.7898 28.0362 24.9894C27.2615 26.3287 26.2712 27.5278 25.1128 28.5392C25.0035 28.6347 24.8494 28.6584 24.7152 28.6031L16.0986 25.0554C16.0037 25.0163 15.8973 25.0163 15.8025 25.0554L7.12801 28.6269C6.99418 28.682 6.84051 28.6586 6.73122 28.5637C5.56907 27.5545 4.57498 26.3569 3.79653 25.0185Z" fill="url(#paint2_linear_2548_70)"/>
<defs>
<linearGradient id="paint0_linear_2548_70" x1="30.4375" y1="18.996" x2="4.07939" y2="15.4632" gradientUnits="userSpaceOnUse">
<stop stop-color="#0A7EFB"/>
<stop offset="0.679244" stop-color="#8A5FEE"/>
<stop offset="1" stop-color="#E05EC8"/>
</linearGradient>
<linearGradient id="paint1_linear_2548_70" x1="2.4375" y1="23.4949" x2="34.2979" y2="11.6233" gradientUnits="userSpaceOnUse">
<stop stop-color="#0B8BFB"/>
<stop offset="0.56009" stop-color="#FF5496"/>
<stop offset="1" stop-color="#FFBB33"/>
</linearGradient>
<linearGradient id="paint2_linear_2548_70" x1="5.88594" y1="28.999" x2="37.3829" y2="22.0024" gradientUnits="userSpaceOnUse">
<stop stop-color="#0B8BFB"/>
<stop offset="0.530839" stop-color="#FF5496"/>
<stop offset="1" stop-color="#FFBB33"/>
</linearGradient>
</defs>
</svg>
