<svg width="24" height="24" viewBox="0 0 24 24" fill="none" xmlns="http://www.w3.org/2000/svg">
<path d="M18.7108 8.20791C18.6178 8.11418 18.5072 8.03978 18.3854 7.98902C18.2635 7.93825 18.1328 7.91211 18.0008 7.91211C17.8688 7.91211 17.7381 7.93825 17.6162 7.98902C17.4944 8.03978 17.3838 8.11418 17.2908 8.20791L12.7108 12.7879C12.6178 12.8816 12.5072 12.956 12.3854 13.0068C12.2635 13.0576 12.1328 13.0837 12.0008 13.0837C11.8688 13.0837 11.7381 13.0576 11.6162 13.0068C11.4944 12.956 11.3838 12.8816 11.2908 12.7879L6.71079 8.20791C6.61783 8.11418 6.50723 8.03978 6.38537 7.98902C6.26351 7.93825 6.1328 7.91211 6.00079 7.91211C5.86878 7.91211 5.73807 7.93825 5.61622 7.98902C5.49436 8.03978 5.38376 8.11418 5.29079 8.20791C5.10454 8.39527 5 8.64872 5 8.91291C5 9.17709 5.10454 9.43055 5.29079 9.61791L9.88079 14.2079C10.4433 14.7697 11.2058 15.0853 12.0008 15.0853C12.7958 15.0853 13.5583 14.7697 14.1208 14.2079L18.7108 9.61791C18.897 9.43055 19.0016 9.17709 19.0016 8.91291C19.0016 8.64872 18.897 8.39527 18.7108 8.20791Z" fill="#192335"/>
</svg>
