<svg width="24" height="24" viewBox="0 0 24 24" fill="none" xmlns="http://www.w3.org/2000/svg">
<path d="M8.20791 5.29019C8.11418 5.38315 8.03978 5.49375 7.98902 5.61561C7.93825 5.73747 7.91211 5.86817 7.91211 6.00019C7.91211 6.1322 7.93825 6.2629 7.98902 6.38476C8.03978 6.50662 8.11418 6.61722 8.20791 6.71018L12.7879 11.2902C12.8816 11.3831 12.956 11.4937 13.0068 11.6156C13.0576 11.7375 13.0837 11.8682 13.0837 12.0002C13.0837 12.1322 13.0576 12.2629 13.0068 12.3848C12.956 12.5066 12.8816 12.6172 12.7879 12.7102L8.20791 17.2902C8.11418 17.3831 8.03978 17.4937 7.98902 17.6156C7.93825 17.7375 7.91211 17.8682 7.91211 18.0002C7.91211 18.1322 7.93825 18.2629 7.98902 18.3848C8.03978 18.5066 8.11418 18.6172 8.20791 18.7102C8.39527 18.8964 8.64872 19.001 8.91291 19.001C9.17709 19.001 9.43055 18.8964 9.61791 18.7102L14.2079 14.1202C14.7697 13.5577 15.0853 12.7952 15.0853 12.0002C15.0853 11.2052 14.7697 10.4427 14.2079 9.88018L9.61791 5.29019C9.43054 5.10394 9.17709 4.99939 8.91291 4.99939C8.64872 4.99939 8.39527 5.10394 8.20791 5.29019Z" fill="#192335"/>
</svg>
