<svg width="20" height="20" viewBox="0 0 20 20" fill="none" xmlns="http://www.w3.org/2000/svg">
<path d="M14.9997 9.9999C14.9956 9.56148 14.819 9.14231 14.508 8.83323L10.933 5.2499C10.7769 5.09469 10.5657 5.00757 10.3455 5.00757C10.1254 5.00757 9.91414 5.09469 9.75801 5.2499C9.6799 5.32736 9.61791 5.41953 9.5756 5.52108C9.53329 5.62263 9.51151 5.73155 9.51151 5.84156C9.51151 5.95157 9.53329 6.06049 9.5756 6.16204C9.61791 6.26359 9.6799 6.35576 9.75801 6.43323L12.4997 9.16656H4.16634C3.94533 9.16656 3.73337 9.25436 3.57709 9.41064C3.42081 9.56692 3.33301 9.77888 3.33301 9.9999C3.33301 10.2209 3.42081 10.4329 3.57709 10.5892C3.73337 10.7454 3.94533 10.8332 4.16634 10.8332H12.4997L9.75801 13.5749C9.60109 13.7307 9.51249 13.9425 9.51171 14.1636C9.51093 14.3848 9.59803 14.5971 9.75384 14.7541C9.90966 14.911 10.1214 14.9996 10.3426 15.0004C10.5637 15.0011 10.7761 14.914 10.933 14.7582L14.508 11.1749C14.821 10.8638 14.9978 10.4412 14.9997 9.9999Z" fill="white"/>
</svg>
