<svg width="20" height="20" viewBox="0 0 20 20" fill="none" xmlns="http://www.w3.org/2000/svg">
<path d="M15.8961 16.9792C14.2155 16.8542 12.6218 16.441 11.1148 15.7396C9.60787 15.0382 8.25718 14.0903 7.06273 12.8958C5.86829 11.7014 4.92732 10.3542 4.23982 8.85417C3.55232 7.35417 3.13912 5.76389 3.00023 4.08333C2.97246 3.79167 3.05778 3.53819 3.25619 3.32292C3.4546 3.10764 3.70261 3 4.00023 3H6.83357C7.06968 3 7.27454 3.07292 7.44815 3.21875C7.62176 3.36458 7.73635 3.54861 7.7919 3.77083L8.2919 5.97917C8.31968 6.15972 8.30926 6.33333 8.26065 6.5C8.21204 6.66667 8.13218 6.80556 8.02107 6.91667L6.00023 8.95833C6.27801 9.48611 6.59746 9.99306 6.95857 10.4792C7.31968 10.9653 7.72224 11.4235 8.16625 11.8538C8.58335 12.2707 9.02801 12.6562 9.50023 13.0104C9.97246 13.3646 10.4725 13.6806 11.0002 13.9583L13.0627 11.9583C13.1738 11.8472 13.3127 11.7674 13.4794 11.7188C13.6461 11.6701 13.8197 11.6597 14.0002 11.6875L16.2294 12.1667C16.4655 12.2361 16.653 12.3576 16.7919 12.5312C16.9308 12.7049 17.0002 12.9097 17.0002 13.1458V15.9792C17.0002 16.2768 16.8891 16.5248 16.6669 16.7232C16.4447 16.9216 16.1877 17.0069 15.8961 16.9792ZM5.31273 7.5L6.77107 6.04167L6.41357 4.5H4.5419C4.61135 5.02778 4.70857 5.53819 4.83357 6.03125C4.95857 6.52431 5.11829 7.01389 5.31273 7.5ZM12.4794 14.6667C12.9669 14.8645 13.4638 15.0216 13.97 15.138C14.4763 15.2543 14.9863 15.3472 15.5002 15.4167V13.5417L13.9377 13.2083L12.4794 14.6667Z" fill="white"/>
</svg>
