<svg width="20" height="20" viewBox="0 0 20 20" fill="none" xmlns="http://www.w3.org/2000/svg">
<path d="M9.10418 10.6248L10 9.93734L10.875 10.6248C11.0278 10.7498 11.1945 10.7533 11.375 10.6353C11.5556 10.5172 11.6111 10.3609 11.5417 10.1665L11.1875 9.0415L12.1875 8.24984C12.3403 8.12484 12.3854 7.96859 12.3229 7.78109C12.2604 7.59359 12.132 7.49984 11.9375 7.49984H10.75L10.3958 6.39567C10.3264 6.20123 10.1945 6.104 10 6.104C9.80557 6.104 9.67362 6.20123 9.60418 6.39567L9.25001 7.49984H8.06251C7.86807 7.49984 7.73612 7.59706 7.66668 7.7915C7.59723 7.98595 7.6389 8.13873 7.79168 8.24984L8.79168 9.0415L8.43751 10.1665C8.36807 10.3609 8.42015 10.5172 8.59376 10.6353C8.76737 10.7533 8.93751 10.7498 9.10418 10.6248ZM6.10418 18.7915C5.8264 18.8887 5.57293 18.854 5.34376 18.6873C5.11459 18.5207 5.00001 18.2984 5.00001 18.0207V12.729C4.47223 12.1457 4.06251 11.479 3.77084 10.729C3.47918 9.979 3.33334 9.18039 3.33334 8.33317C3.33334 6.47206 3.97918 4.89567 5.27084 3.604C6.56251 2.31234 8.1389 1.6665 10 1.6665C11.8611 1.6665 13.4375 2.31234 14.7292 3.604C16.0208 4.89567 16.6667 6.47206 16.6667 8.33317C16.6667 9.18039 16.5208 9.979 16.2292 10.729C15.9375 11.479 15.5278 12.1457 15 12.729V18.0207C15 18.2984 14.8854 18.5207 14.6563 18.6873C14.4271 18.854 14.1736 18.8887 13.8958 18.7915L10 17.4998L6.10418 18.7915ZM10 13.3332C11.3889 13.3332 12.5695 12.8471 13.5417 11.8748C14.5139 10.9026 15 9.72206 15 8.33317C15 6.94428 14.5139 5.76373 13.5417 4.7915C12.5695 3.81928 11.3889 3.33317 10 3.33317C8.61112 3.33317 7.43057 3.81928 6.45834 4.7915C5.48612 5.76373 5.00001 6.94428 5.00001 8.33317C5.00001 9.72206 5.48612 10.9026 6.45834 11.8748C7.43057 12.8471 8.61112 13.3332 10 13.3332ZM6.66668 16.6873L10 15.8332L13.3333 16.6873V14.104C12.8472 14.3818 12.3229 14.6005 11.7604 14.7603C11.1979 14.92 10.6111 14.9998 10 14.9998C9.3889 14.9998 8.80209 14.92 8.23959 14.7603C7.67709 14.6005 7.15279 14.3818 6.66668 14.104V16.6873Z" fill="#6B7385"/>
</svg>
