<svg width="20" height="20" viewBox="0 0 20 20" fill="none" xmlns="http://www.w3.org/2000/svg">
<path d="M3.33332 16.6666C2.87499 16.6666 2.48263 16.5034 2.15624 16.177C1.82985 15.8506 1.66666 15.4583 1.66666 14.9999V4.99992C1.66666 4.54159 1.82985 4.14922 2.15624 3.82284C2.48263 3.49645 2.87499 3.33325 3.33332 3.33325H7.64582C7.86804 3.33325 8.07985 3.37492 8.28124 3.45825C8.48263 3.54159 8.65971 3.65964 8.81249 3.81242L9.99999 4.99992H16.6667C17.125 4.99992 17.5174 5.16311 17.8437 5.4895C18.1701 5.81589 18.3333 6.20825 18.3333 6.66658H9.31249L7.64582 4.99992H3.33332V14.9999L4.97916 9.52075C5.09027 9.15964 5.29513 8.87145 5.59374 8.65617C5.89235 8.44089 6.22221 8.33325 6.58332 8.33325H17.3333C17.9028 8.33325 18.3507 8.55895 18.6771 9.01033C19.0035 9.46172 19.0903 9.95131 18.9375 10.4791L17.4375 15.4791C17.3264 15.8402 17.1215 16.1284 16.8229 16.3437C16.5243 16.5589 16.1944 16.6666 15.8333 16.6666H3.33332ZM5.08332 14.9999H15.8333L17.3333 9.99992H6.58332L5.08332 14.9999Z" fill="#6B7385"/>
</svg>
