<svg width="20" height="20" viewBox="0 0 20 20" fill="none" xmlns="http://www.w3.org/2000/svg">
<path d="M17.813 16.8711L13.8369 12.8951C14.9205 11.5699 15.4532 9.87893 15.325 8.17198C15.1967 6.46502 14.4173 4.87267 13.1479 3.72427C11.8785 2.57587 10.2163 1.9593 8.50509 2.00209C6.79386 2.04487 5.16454 2.74374 3.95414 3.95414C2.74374 5.16454 2.04487 6.79386 2.00209 8.50509C1.9593 10.2163 2.57587 11.8785 3.72427 13.1479C4.87267 14.4173 6.46502 15.1967 8.17198 15.325C9.87893 15.4532 11.5699 14.9205 12.8951 13.8369L16.8711 17.813C16.9968 17.9344 17.165 18.0015 17.3397 18C17.5143 17.9985 17.6814 17.9284 17.8049 17.8049C17.9284 17.6814 17.9985 17.5143 18 17.3397C18.0015 17.165 17.9344 16.9968 17.813 16.8711ZM8.68251 14.0115C7.62855 14.0115 6.59825 13.6989 5.72191 13.1134C4.84556 12.5278 4.16254 11.6956 3.7592 10.7218C3.35587 9.74808 3.25034 8.6766 3.45595 7.64289C3.66157 6.60917 4.16911 5.65964 4.91437 4.91437C5.65964 4.16911 6.60917 3.66157 7.64289 3.45595C8.6766 3.25034 9.74808 3.35587 10.7218 3.7592C11.6956 4.16254 12.5278 4.84556 13.1134 5.72191C13.6989 6.59825 14.0115 7.62855 14.0115 8.68251C14.0099 10.0954 13.4479 11.4499 12.4489 12.4489C11.4499 13.4479 10.0954 14.0099 8.68251 14.0115Z" fill="#6B7385"/>
</svg>
