<svg width="20" height="20" viewBox="0 0 20 20" fill="none" xmlns="http://www.w3.org/2000/svg">
<path d="M12.5833 15.7917L11.8542 17.8126C11.7986 17.9654 11.7014 18.0904 11.5625 18.1876C11.4236 18.2848 11.2708 18.3334 11.1042 18.3334C10.8264 18.3334 10.6007 18.2188 10.4271 17.9897C10.2535 17.7605 10.2222 17.507 10.3333 17.2292L13.5 8.85425C13.5695 8.70147 13.6736 8.57647 13.8125 8.47925C13.9514 8.38203 14.1042 8.33341 14.2708 8.33341H14.8958C15.0625 8.33341 15.2153 8.38203 15.3542 8.47925C15.4931 8.57647 15.5972 8.70147 15.6667 8.85425L18.8333 17.2501C18.9445 17.514 18.9167 17.7605 18.75 17.9897C18.5833 18.2188 18.3611 18.3334 18.0833 18.3334C17.9028 18.3334 17.7465 18.2813 17.6146 18.1772C17.4826 18.073 17.382 17.9376 17.3125 17.7709L16.625 15.7917H12.5833ZM13.0833 14.3334H16.0833L14.625 10.2084H14.5417L13.0833 14.3334ZM7.50001 11.6667L3.91668 15.2501C3.7639 15.4029 3.56945 15.4792 3.33334 15.4792C3.09723 15.4792 2.90279 15.4029 2.75001 15.2501C2.59723 15.0973 2.52084 14.9029 2.52084 14.6667C2.52084 14.4306 2.59723 14.2362 2.75001 14.0834L6.37501 10.4584C5.84723 9.87508 5.38543 9.27091 4.98959 8.64591C4.59376 8.02091 4.25001 7.36119 3.95834 6.66675H5.70834C5.95834 7.16675 6.2257 7.61814 6.51043 8.02091C6.79515 8.42369 7.1389 8.8473 7.54168 9.29175C8.15279 8.62508 8.65973 7.94105 9.06251 7.23966C9.46529 6.53828 9.80557 5.79175 10.0833 5.00008H1.66668C1.43057 5.00008 1.23265 4.92022 1.07293 4.7605C0.913205 4.60078 0.833344 4.40286 0.833344 4.16675C0.833344 3.93064 0.913205 3.73272 1.07293 3.573C1.23265 3.41328 1.43057 3.33341 1.66668 3.33341H6.66668V2.50008C6.66668 2.26397 6.74654 2.06605 6.90626 1.90633C7.06598 1.74661 7.2639 1.66675 7.50001 1.66675C7.73612 1.66675 7.93404 1.74661 8.09376 1.90633C8.25348 2.06605 8.33334 2.26397 8.33334 2.50008V3.33341H13.3333C13.5695 3.33341 13.7674 3.41328 13.9271 3.573C14.0868 3.73272 14.1667 3.93064 14.1667 4.16675C14.1667 4.40286 14.0868 4.60078 13.9271 4.7605C13.7674 4.92022 13.5695 5.00008 13.3333 5.00008H11.75C11.4583 5.98619 11.0625 6.94453 10.5625 7.87508C10.0625 8.80564 9.44446 9.68064 8.70834 10.5001L10.7083 12.5417L10.0833 14.2501L7.50001 11.6667Z" fill="#6B7385"/>
</svg>
