<svg width="18" height="18" viewBox="0 0 18 18" fill="none" xmlns="http://www.w3.org/2000/svg">
<path d="M4.9443 16.1999C4.57284 16.1999 4.25586 16.0677 3.99336 15.8033C3.73086 15.539 3.59961 15.2212 3.59961 14.8499V7.6499C3.59961 7.27865 3.7318 6.96084 3.99617 6.69647C4.26055 6.43209 4.57836 6.2999 4.94961 6.2999H5.39961V4.4999C5.39961 3.5039 5.75102 2.6549 6.45385 1.9529C7.15667 1.2509 8.00667 0.899902 9.00385 0.899902C10.001 0.899902 10.8496 1.2509 11.5496 1.9529C12.2496 2.6549 12.5996 3.5039 12.5996 4.4999V6.2999H13.0496C13.4209 6.2999 13.7387 6.43209 14.003 6.69647C14.2674 6.96084 14.3996 7.27865 14.3996 7.6499V14.8499C14.3996 15.2212 14.2673 15.539 14.0028 15.8033C13.7383 16.0677 13.4203 16.1999 13.0489 16.1999H4.9443ZM4.94961 14.8499H13.0496V7.6499H4.94961V14.8499ZM9.00358 12.5999C9.37593 12.5999 9.69336 12.4673 9.95586 12.2022C10.2184 11.937 10.3496 11.6183 10.3496 11.2459C10.3496 10.8736 10.217 10.5562 9.95189 10.2937C9.68672 10.0312 9.36797 9.8999 8.99563 9.8999C8.62328 9.8999 8.30586 10.0325 8.04336 10.2976C7.78086 10.5628 7.64961 10.8815 7.64961 11.2539C7.64961 11.6262 7.78218 11.9437 8.04733 12.2062C8.3125 12.4687 8.63125 12.5999 9.00358 12.5999ZM6.74961 6.2999H11.2496V4.4999C11.2496 3.8749 11.0309 3.34365 10.5934 2.90615C10.1559 2.46865 9.62461 2.2499 8.99961 2.2499C8.37461 2.2499 7.84336 2.46865 7.40586 2.90615C6.96836 3.34365 6.74961 3.8749 6.74961 4.4999V6.2999Z" fill="#192335"/>
</svg>
