<svg width="24" height="24" viewBox="0 0 24 24" fill="none" xmlns="http://www.w3.org/2000/svg">
<path d="M4.1 20C3.5225 20 3.02813 19.7944 2.61688 19.3831C2.20563 18.9719 2 18.4775 2 17.9V6.1C2 5.5225 2.20563 5.02812 2.61688 4.61687C3.02813 4.20562 3.5225 4 4.1 4H19.9C20.4775 4 20.9719 4.20562 21.3831 4.61687C21.7944 5.02812 22 5.5225 22 6.1V17.9C22 18.4775 21.7944 18.9719 21.3831 19.3831C20.9719 19.7944 20.4775 20 19.9 20H4.1ZM19.9 8.2L12.5479 12.7766C12.466 12.8255 12.3792 12.8667 12.2875 12.9C12.1958 12.9333 12.1 12.95 12 12.95C11.9 12.95 11.8042 12.9354 11.7125 12.9062C11.6208 12.8771 11.5333 12.8333 11.45 12.775L4.1 8.2V17.9H19.9V8.2ZM12 11.05L19.95 6.1H4.075L12 11.05ZM4.1 8.2V8.4462V6.93125V6.95V6.9427V8.45V8.2Z" fill="#217CE9"/>
</svg>
