<svg width="20" height="20" viewBox="0 0 20 20" fill="none" xmlns="http://www.w3.org/2000/svg">
<path d="M3.41699 16.6668C2.93574 16.6668 2.52376 16.4955 2.18105 16.1528C1.83835 15.8101 1.66699 15.3981 1.66699 14.9168V5.0835C1.66699 4.60225 1.83835 4.19027 2.18105 3.84756C2.52376 3.50485 2.93574 3.3335 3.41699 3.3335H16.5837C17.0649 3.3335 17.4769 3.50485 17.8196 3.84756C18.1623 4.19027 18.3337 4.60225 18.3337 5.0835V14.9168C18.3337 15.3981 18.1623 15.8101 17.8196 16.1528C17.4769 16.4955 17.0649 16.6668 16.5837 16.6668H3.41699ZM16.5837 6.8335L10.457 10.6473C10.3886 10.6881 10.3163 10.7224 10.2399 10.7502C10.1635 10.7779 10.0837 10.7918 10.0003 10.7918C9.91699 10.7918 9.83713 10.7797 9.76074 10.7554C9.68435 10.7311 9.61144 10.6946 9.54199 10.646L3.41699 6.8335V14.9168H16.5837V6.8335ZM10.0003 9.2085L16.6253 5.0835H3.39616L10.0003 9.2085ZM3.41699 6.8335V7.03866V5.7762V5.79183V5.78575V7.04183V6.8335Z" fill="white"/>
</svg>
