<svg width="50" height="50" viewBox="0 0 50 50" fill="none" xmlns="http://www.w3.org/2000/svg">
<path fill-rule="evenodd" clip-rule="evenodd" d="M13.1076 34.7039L9.58664 42.2559C9.45568 42.5368 9.49572 42.8679 9.68986 43.1096C9.8841 43.3512 10.1988 43.4615 10.5014 43.394L14.3138 42.5436L16.0527 45.9768C16.1935 46.2547 16.4805 46.4278 16.7919 46.4228C17.1033 46.4177 17.3846 46.2353 17.5162 45.9529L20.8692 38.7616C21.8043 38.9584 22.7807 38.8225 23.6284 38.3747L25.0002 37.6502L26.372 38.3747C27.2197 38.8225 28.1961 38.9584 29.1313 38.7616L32.4842 45.9529C32.6158 46.2353 32.8971 46.4177 33.2085 46.4228C33.5199 46.4278 33.807 46.2547 33.9478 45.9768L35.6866 42.5436L39.499 43.394C39.8016 43.4615 40.1163 43.3512 40.3106 43.1096C40.5047 42.8679 40.5447 42.5368 40.4138 42.2559L36.8928 34.7039C37.608 34.0424 38.0652 33.1468 38.1803 32.1772L38.3633 30.6367L39.7389 29.9193C40.6306 29.4543 41.3202 28.6778 41.6769 27.7375C42.0335 26.7972 42.0322 25.7586 41.6731 24.8191L41.1192 23.37L42.0038 22.0956C42.5773 21.2694 42.8271 20.2613 42.7059 19.263C42.5847 18.2646 42.1008 17.3457 41.3463 16.6808L40.1824 15.655L40.3735 14.1154C40.4973 13.1174 40.25 12.1087 39.6787 11.2811C39.1074 10.4533 38.2519 9.86445 37.2748 9.62637L35.7676 9.25898L35.2212 7.80703C34.8671 6.86582 34.1794 6.0875 33.2889 5.62012C32.3984 5.15273 31.3672 5.02891 30.3914 5.27217L28.8861 5.64736L27.7276 4.61553C26.9765 3.94668 26.0059 3.57715 25.0002 3.57715C23.9946 3.57715 23.0239 3.94668 22.2729 4.61553L21.1144 5.64736L19.609 5.27217C18.6332 5.02891 17.6021 5.15273 16.7115 5.62012C15.821 6.0875 15.1333 6.86582 14.7792 7.80703L14.2328 9.25898L12.7256 9.62637C11.7486 9.86445 10.893 10.4533 10.3217 11.2811C9.75041 12.1087 9.50314 13.1174 9.62697 14.1154L9.81799 15.655L8.65412 16.6808C7.89963 17.3457 7.41574 18.2646 7.29455 19.263C7.17336 20.2613 7.42316 21.2694 7.9966 22.0956L8.88127 23.37L8.32736 24.8191C7.96828 25.7586 7.96691 26.7972 8.32355 27.7375C8.68019 28.6778 9.36984 29.4543 10.2615 29.9193L11.6371 30.6367L11.8201 32.1772C11.9353 33.1468 12.3924 34.0424 13.1076 34.7039ZM35.493 35.5534C35.0489 35.7128 34.5771 35.7956 34.0975 35.7943L32.5461 35.7903L31.6682 37.0693C31.3848 37.4821 31.0309 37.8358 30.6265 38.1168L33.2521 43.7481L34.5204 41.2438C34.6886 40.9119 35.0605 40.7363 35.4237 40.8173L38.2402 41.4456L35.493 35.5534ZM14.5074 35.5534L11.7603 41.4456L14.5768 40.8173C14.94 40.7363 15.3118 40.9119 15.48 41.2438L16.7484 43.7481L19.3739 38.1168C18.9696 37.8358 18.6156 37.4821 18.3322 37.0693L17.4543 35.7903L15.9029 35.7943C15.4234 35.7956 14.9515 35.7128 14.5074 35.5534ZM23.3554 5.83105C23.8083 5.42764 24.3937 5.20479 25.0002 5.20479C25.6068 5.20479 26.1921 5.42764 26.645 5.83105L27.8205 6.87783C28.0132 7.04941 28.2447 7.17139 28.4952 7.23311C28.7456 7.29482 29.0074 7.29453 29.2577 7.23213L30.785 6.85146C31.3736 6.70478 31.9954 6.77939 32.5325 7.06133C33.0696 7.34316 33.4843 7.8125 33.6979 8.38018L34.2523 9.85342C34.3431 10.0948 34.4914 10.3104 34.6846 10.4815C34.8777 10.6525 35.1095 10.7739 35.3602 10.835L36.8895 11.2077C37.4787 11.3513 37.9946 11.7064 38.3392 12.2056C38.6838 12.7048 38.8328 13.3131 38.7582 13.915L38.5644 15.4771C38.5326 15.7331 38.5639 15.993 38.6553 16.2342C38.7468 16.4754 38.8957 16.6905 39.0893 16.8611L40.2701 17.9019C40.7252 18.3028 41.017 18.8571 41.0902 19.4592C41.1632 20.0613 41.0125 20.6692 40.6667 21.1675L39.7692 22.4606C39.6221 22.6726 39.5289 22.9171 39.4979 23.1731C39.4668 23.4293 39.4987 23.6891 39.5907 23.93L40.1528 25.4003C40.3694 25.9668 40.3701 26.5933 40.1551 27.1604C39.94 27.7274 39.524 28.1957 38.9863 28.4762L37.5905 29.2041C37.3618 29.3233 37.1657 29.4967 37.0192 29.709C36.8727 29.9212 36.7802 30.1661 36.7497 30.4223L36.5641 31.9853C36.4925 32.5876 36.2022 33.1426 35.7482 33.5448C35.2942 33.947 34.7082 34.1684 34.1017 34.1668L32.5277 34.1627C32.2697 34.162 32.0154 34.2243 31.7871 34.3441C31.5587 34.4641 31.363 34.6379 31.217 34.8505L30.3263 36.1482C29.983 36.6483 29.468 37.0048 28.879 37.15C28.2902 37.2951 27.6685 37.2188 27.1321 36.9355L25.7403 36.2004C25.5122 36.08 25.2581 36.017 25.0002 36.017C24.7423 36.017 24.4882 36.08 24.2602 36.2004L22.8683 36.9355C22.332 37.2188 21.7103 37.2951 21.1214 37.15C20.5324 37.0048 20.0174 36.6483 19.6741 36.1482L18.7834 34.8505C18.6374 34.6379 18.4417 34.4641 18.2133 34.3441C17.985 34.2243 17.7307 34.162 17.4728 34.1627L15.8987 34.1668C15.2922 34.1684 14.7063 33.947 14.2523 33.5448C13.7983 33.1426 13.5079 32.5876 13.4363 31.9853L13.2507 30.4223C13.2202 30.1661 13.1278 29.9212 12.9813 29.709C12.8347 29.4967 12.6386 29.3233 12.4099 29.2041L11.0142 28.4762C10.4764 28.1957 10.0605 27.7274 9.84533 27.1604C9.63029 26.5933 9.63107 25.9668 9.84767 25.4003L10.4097 23.93C10.5018 23.6891 10.5336 23.4293 10.5026 23.1731C10.4715 22.9171 10.3783 22.6726 10.2313 22.4606L9.33371 21.1675C8.98791 20.6692 8.83723 20.0613 8.91027 19.4592C8.98342 18.8571 9.27521 18.3028 9.73029 17.9019L10.9112 16.8611C11.1047 16.6905 11.2536 16.4754 11.3451 16.2342C11.4365 15.993 11.4678 15.7331 11.4361 15.4771L11.2422 13.915C11.1676 13.3131 11.3166 12.7048 11.6612 12.2056C12.0058 11.7064 12.5217 11.3513 13.111 11.2077L14.6403 10.835C14.8909 10.7739 15.1228 10.6525 15.3158 10.4815C15.509 10.3104 15.6573 10.0948 15.7482 9.85342L16.3026 8.38018C16.5161 7.8125 16.9309 7.34316 17.4679 7.06133C18.005 6.77939 18.6269 6.70478 19.2155 6.85146L20.7427 7.23213C20.993 7.29453 21.2548 7.29482 21.5052 7.23311C21.7557 7.17139 21.9872 7.04941 22.1799 6.87783L23.3554 5.83105Z" fill="#F82586"/>
<path fill-rule="evenodd" clip-rule="evenodd" d="M25.0004 9.56006C18.4586 9.56006 13.1475 14.8712 13.1475 21.413C13.1475 27.9548 18.4586 33.2658 25.0004 33.2658C31.5422 33.2658 36.8533 27.9548 36.8533 21.413C36.8533 14.8712 31.5422 9.56006 25.0004 9.56006ZM25.0004 11.1877C30.6438 11.1877 35.2257 15.7694 35.2257 21.413C35.2257 27.0564 30.6438 31.6383 25.0004 31.6383C19.3569 31.6383 14.7751 27.0564 14.7751 21.413C14.7751 15.7694 19.3569 11.1877 25.0004 11.1877Z" fill="#F82586"/>
<path fill-rule="evenodd" clip-rule="evenodd" d="M23.4496 22.0465L21.2273 20.1947C20.1996 19.3382 18.6698 19.4773 17.8134 20.505C16.9569 21.5328 17.096 23.0625 18.1237 23.919L22.2458 27.354C22.7461 27.7709 23.3932 27.969 24.0411 27.9036C24.6891 27.8381 25.2835 27.5146 25.6903 27.0061L32.2168 18.848C33.0525 17.8033 32.8829 16.2766 31.8383 15.441C30.7936 14.6052 29.267 14.7749 28.4312 15.8195L23.4496 22.0465ZM19.1657 22.6686C18.8281 22.3873 18.7824 21.8847 19.0638 21.547C19.3451 21.2094 19.8477 21.1637 20.1853 21.4451L23.0445 23.8278C23.3279 24.0638 23.5664 24.017 23.5664 24.017L24.2018 23.7117L29.7021 16.8363C29.9768 16.493 30.4783 16.4373 30.8215 16.7119C31.1647 16.9865 31.2204 17.488 30.9459 17.8312L24.4194 25.9893C24.2857 26.1564 24.0904 26.2626 23.8775 26.2841C23.6646 26.3057 23.4521 26.2406 23.2877 26.1037L19.1657 22.6686Z" fill="#F82586"/>
</svg>
