<svg width="20" height="20" viewBox="0 0 20 20" fill="none" xmlns="http://www.w3.org/2000/svg">
<path d="M5.87435 10.1248L7.91602 12.1665C8.06879 12.3193 8.14518 12.4964 8.14518 12.6978C8.14518 12.8991 8.06879 13.0795 7.91602 13.239C7.76324 13.3851 7.58615 13.4582 7.38477 13.4582C7.18338 13.4582 7.00629 13.3818 6.85352 13.229L3.52018 9.89567C3.3674 9.74795 3.29102 9.5756 3.29102 9.37863C3.29102 9.18166 3.3674 9.00678 3.52018 8.854L6.85352 5.52067C7.00629 5.36789 7.18454 5.2915 7.38824 5.2915C7.59194 5.2915 7.76786 5.36789 7.91602 5.52067C8.06879 5.66882 8.14518 5.84475 8.14518 6.04844C8.14518 6.25215 8.06879 6.43039 7.91602 6.58317L5.87435 8.62484H12.9993C14.106 8.62484 15.0493 9.01484 15.8293 9.79484C16.6094 10.5748 16.9993 11.5182 16.9993 12.6248V14.8748C16.9993 15.0873 16.9279 15.2655 16.785 15.4092C16.6421 15.553 16.465 15.6248 16.2537 15.6248C16.0425 15.6248 15.8639 15.553 15.7181 15.4092C15.5723 15.2655 15.4993 15.0873 15.4993 14.8748V12.6248C15.4993 11.9304 15.2563 11.3401 14.7702 10.854C14.2841 10.3679 13.6938 10.1248 12.9993 10.1248H5.87435Z" fill="#6B7385"/>
</svg>
