<svg width="24" height="24" viewBox="0 0 24 24" fill="none" xmlns="http://www.w3.org/2000/svg">
<path fill-rule="evenodd" clip-rule="evenodd" d="M9.99805 3.50024C6.4082 3.50024 3.49805 6.41039 3.49805 10.0002C3.49805 13.5901 6.4082 16.5002 9.99805 16.5002C13.5879 16.5002 16.498 13.5901 16.498 10.0002C16.498 6.41039 13.5879 3.50024 9.99805 3.50024ZM2.49805 10.0002C2.49805 5.85811 5.85591 2.50024 9.99805 2.50024C14.1402 2.50024 17.498 5.85811 17.498 10.0002C17.498 14.1424 14.1402 17.5002 9.99805 17.5002C5.85591 17.5002 2.49805 14.1424 2.49805 10.0002Z" fill="#6B7385"/>
<path fill-rule="evenodd" clip-rule="evenodd" d="M13.998 10.0002C13.998 7.79111 12.2072 6.00024 9.99805 6.00024V5.00024C12.7595 5.00024 14.998 7.23882 14.998 10.0002H13.998Z" fill="#6B7385"/>
<path fill-rule="evenodd" clip-rule="evenodd" d="M15.3516 14.6467L21.3516 20.6467L20.6445 21.3538L14.6445 15.3538L15.3516 14.6467Z" fill="#6B7385"/>
</svg>
