<svg width="24" height="24" viewBox="0 0 24 24" fill="none" xmlns="http://www.w3.org/2000/svg">
<g clip-path="url(#clip0_369_2248)">
<path d="M12 0C5.37188 0 0 5.37188 0 12C0 18.6281 5.37188 24 12 24C18.6281 24 24 18.6281 24 12C24 5.37188 18.6281 0 12 0ZM18.6844 11.2078L15.9469 13.9172L16.5984 17.7469C16.6734 18.2063 16.3641 18.6422 15.9047 18.7172C15.7219 18.7453 15.5344 18.7172 15.375 18.6281L12 16.8281L8.62969 18.6281C8.21719 18.8437 7.70625 18.6891 7.49063 18.2766C7.40625 18.1125 7.37344 17.925 7.40156 17.7469L8.04844 13.9172L5.31094 11.2078C4.98281 10.8797 4.97812 10.35 5.30625 10.0172C5.43281 9.88594 5.60156 9.80156 5.77969 9.77813L9.55313 9.22031L11.2406 5.74219C11.4469 5.325 11.9531 5.15156 12.3703 5.35781C12.5344 5.44219 12.6703 5.57344 12.7547 5.74219L14.4422 9.22031L18.2156 9.77813C18.675 9.84844 18.9938 10.275 18.9234 10.7344C18.9 10.9125 18.8156 11.0813 18.6844 11.2078Z" fill="url(#paint0_linear_369_2248)"/>
</g>
<defs>
<linearGradient id="paint0_linear_369_2248" x1="12" y1="-0.166406" x2="12" y2="23.58" gradientUnits="userSpaceOnUse">
<stop stop-color="#43BCFF"/>
<stop offset="1" stop-color="#0149ED"/>
</linearGradient>
<clipPath id="clip0_369_2248">
<rect width="24" height="24" fill="white"/>
</clipPath>
</defs>
</svg>
