<svg width="20" height="20" viewBox="0 0 20 20" fill="none" xmlns="http://www.w3.org/2000/svg">
<path d="M4.16667 16.6666C3.70833 16.6666 3.31597 16.5034 2.98958 16.177C2.66319 15.8506 2.5 15.4583 2.5 14.9999V4.99992C2.5 4.54159 2.66319 4.14922 2.98958 3.82284C3.31597 3.49645 3.70833 3.33325 4.16667 3.33325H15.8333C16.2917 3.33325 16.684 3.49645 17.0104 3.82284C17.3368 4.14922 17.5 4.54159 17.5 4.99992V14.9999C17.5 15.4583 17.3368 15.8506 17.0104 16.177C16.684 16.5034 16.2917 16.6666 15.8333 16.6666H4.16667ZM4.16667 14.9999H15.8333V4.99992H4.16667V14.9999ZM5.83333 12.4999H8.33333C8.56944 12.4999 8.76736 12.4201 8.92708 12.2603C9.08681 12.1006 9.16667 11.9027 9.16667 11.6666V11.2499C9.16667 11.1249 9.125 11.0208 9.04167 10.9374C8.95833 10.8541 8.85417 10.8124 8.72917 10.8124H8.35417C8.22917 10.8124 8.125 10.8541 8.04167 10.9374C7.95833 11.0208 7.91667 11.1249 7.91667 11.2499H6.25V8.74992H7.91667C7.91667 8.87492 7.95833 8.97908 8.04167 9.06242C8.125 9.14575 8.22917 9.18742 8.35417 9.18742H8.72917C8.85417 9.18742 8.95833 9.14575 9.04167 9.06242C9.125 8.97908 9.16667 8.87492 9.16667 8.74992V8.33325C9.16667 8.09714 9.08681 7.89922 8.92708 7.7395C8.76736 7.57978 8.56944 7.49992 8.33333 7.49992H5.83333C5.59722 7.49992 5.39931 7.57978 5.23958 7.7395C5.07986 7.89922 5 8.09714 5 8.33325V11.6666C5 11.9027 5.07986 12.1006 5.23958 12.2603C5.39931 12.4201 5.59722 12.4999 5.83333 12.4999ZM14.1667 7.49992H11.6667C11.4306 7.49992 11.2326 7.57978 11.0729 7.7395C10.9132 7.89922 10.8333 8.09714 10.8333 8.33325V11.6666C10.8333 11.9027 10.9132 12.1006 11.0729 12.2603C11.2326 12.4201 11.4306 12.4999 11.6667 12.4999H14.1667C14.4028 12.4999 14.6007 12.4201 14.7604 12.2603C14.9201 12.1006 15 11.9027 15 11.6666V11.2499C15 11.1249 14.9583 11.0208 14.875 10.9374C14.7917 10.8541 14.6875 10.8124 14.5625 10.8124H14.1875C14.0625 10.8124 13.9583 10.8541 13.875 10.9374C13.7917 11.0208 13.75 11.1249 13.75 11.2499H12.0833V8.74992H13.75C13.75 8.87492 13.7917 8.97908 13.875 9.06242C13.9583 9.14575 14.0625 9.18742 14.1875 9.18742H14.5625C14.6875 9.18742 14.7917 9.14575 14.875 9.06242C14.9583 8.97908 15 8.87492 15 8.74992V8.33325C15 8.09714 14.9201 7.89922 14.7604 7.7395C14.6007 7.57978 14.4028 7.49992 14.1667 7.49992Z" fill="#6B7385"/>
</svg>
