<svg width="20" height="20" viewBox="0 0 20 20" fill="none" xmlns="http://www.w3.org/2000/svg">
<path d="M15.8831 15.5583L14.0997 12L12.3164 15.5583" stroke="#6B7385" stroke-width="1.25" stroke-linecap="round" stroke-linejoin="round"/>
<path d="M12.6445 14.9253H15.5779" stroke="#6B7385" stroke-width="1.25" stroke-linecap="round" stroke-linejoin="round"/>
<path d="M14.1005 18.3333C11.7672 18.3333 9.86719 16.4417 9.86719 14.1C9.86719 11.7667 11.7589 9.8667 14.1005 9.8667C16.4339 9.8667 18.3339 11.7583 18.3339 14.1C18.3339 16.4417 16.4422 18.3333 14.1005 18.3333Z" stroke="#6B7385" stroke-width="1.25" stroke-linecap="round" stroke-linejoin="round"/>
<path d="M4.18464 1.6665H7.4513C9.1763 1.6665 10.0096 2.49985 9.96797 4.18319V7.44984C10.0096 9.17484 9.1763 10.0082 7.4513 9.96652H4.18464C2.50131 9.99986 1.66797 9.1665 1.66797 7.4415V4.17485C1.66797 2.49985 2.50131 1.6665 4.18464 1.6665Z" stroke="#6B7385" stroke-width="1.25" stroke-linecap="round" stroke-linejoin="round"/>
<path d="M7.50833 4.87549H4.125" stroke="#6B7385" stroke-width="1.25" stroke-linecap="round" stroke-linejoin="round"/>
<path d="M5.80859 4.30859V4.87525" stroke="#6B7385" stroke-width="1.25" stroke-linecap="round" stroke-linejoin="round"/>
<path d="M6.65886 4.86719C6.65886 6.32552 5.51719 7.50884 4.11719 7.50884" stroke="#6B7385" stroke-width="1.25" stroke-linecap="round" stroke-linejoin="round"/>
<path d="M7.5065 7.50867C6.89817 7.50867 6.34818 7.18366 5.96484 6.66699" stroke="#6B7385" stroke-width="1.25" stroke-linecap="round" stroke-linejoin="round"/>
<path d="M1.66406 12.5005C1.66406 15.7255 4.2724 18.3338 7.4974 18.3338L6.62239 16.8755" stroke="#6B7385" stroke-width="1.25" stroke-linecap="round" stroke-linejoin="round"/>
<path d="M18.3294 7.50033C18.3294 4.27533 15.7211 1.66699 12.4961 1.66699L13.3711 3.12533" stroke="#6B7385" stroke-width="1.25" stroke-linecap="round" stroke-linejoin="round"/>
</svg>
