<svg width="13" height="10" viewBox="0 0 13 10" fill="none" xmlns="http://www.w3.org/2000/svg">
<path d="M4.19792 7.58683L11.3479 0.291848C11.5465 0.0884386 11.7722 -0.00864287 12.025 0.000602991C12.2778 0.00984885 12.5035 0.116176 12.7021 0.319585C12.9007 0.522994 13 0.754141 13 1.01302C13 1.27191 12.9007 1.50306 12.7021 1.70646L4.90208 9.69489C4.70347 9.8983 4.47326 10 4.21146 10C3.94965 10 3.71944 9.8983 3.52083 9.69489L0.297917 6.39411C0.0993056 6.19071 0 5.95956 0 5.70068C0 5.44179 0.0993056 5.21064 0.297917 5.00724C0.496528 4.80383 0.722222 4.70212 0.975 4.70212C1.22778 4.70212 1.45347 4.80383 1.65208 5.00724L4.19792 7.58683Z" fill="#6B7385"/>
</svg>
