<svg width="20" height="20" viewBox="0 0 20 20" fill="none" xmlns="http://www.w3.org/2000/svg">
<path d="M10 9.99992C9.08334 9.99992 8.29862 9.67353 7.64584 9.02075C6.99307 8.36797 6.66668 7.58325 6.66668 6.66658C6.66668 5.74992 6.99307 4.9652 7.64584 4.31242C8.29862 3.65964 9.08334 3.33325 10 3.33325C10.9167 3.33325 11.7014 3.65964 12.3542 4.31242C13.007 4.9652 13.3333 5.74992 13.3333 6.66658C13.3333 7.58325 13.007 8.36797 12.3542 9.02075C11.7014 9.67353 10.9167 9.99992 10 9.99992ZM15 16.6666H5.00001C4.54168 16.6666 4.14932 16.5034 3.82293 16.177C3.49654 15.8506 3.33334 15.4583 3.33334 14.9999V14.3333C3.33334 13.861 3.45487 13.427 3.69793 13.0312C3.94098 12.6353 4.2639 12.3333 4.66668 12.1249C5.52779 11.6944 6.40279 11.3714 7.29168 11.1562C8.18057 10.9409 9.08334 10.8333 10 10.8333C10.9167 10.8333 11.8195 10.9409 12.7083 11.1562C13.5972 11.3714 14.4722 11.6944 15.3333 12.1249C15.7361 12.3333 16.059 12.6353 16.3021 13.0312C16.5451 13.427 16.6667 13.861 16.6667 14.3333V14.9999C16.6667 15.4583 16.5035 15.8506 16.1771 16.177C15.8507 16.5034 15.4583 16.6666 15 16.6666ZM5.00001 14.9999H15V14.3333C15 14.1805 14.9618 14.0416 14.8854 13.9166C14.809 13.7916 14.7083 13.6944 14.5833 13.6249C13.8333 13.2499 13.0764 12.9687 12.3125 12.7812C11.5486 12.5937 10.7778 12.4999 10 12.4999C9.22223 12.4999 8.4514 12.5937 7.68751 12.7812C6.92362 12.9687 6.16668 13.2499 5.41668 13.6249C5.29168 13.6944 5.19098 13.7916 5.11459 13.9166C5.0382 14.0416 5.00001 14.1805 5.00001 14.3333V14.9999ZM10 8.33325C10.4583 8.33325 10.8507 8.17006 11.1771 7.84367C11.5035 7.51728 11.6667 7.12492 11.6667 6.66658C11.6667 6.20825 11.5035 5.81589 11.1771 5.4895C10.8507 5.16311 10.4583 4.99992 10 4.99992C9.54168 4.99992 9.14932 5.16311 8.82293 5.4895C8.49654 5.81589 8.33334 6.20825 8.33334 6.66658C8.33334 7.12492 8.49654 7.51728 8.82293 7.84367C9.14932 8.17006 9.54168 8.33325 10 8.33325Z" fill="#6B7385"/>
</svg>
