<svg width="20" height="20" viewBox="0 0 20 20" fill="none" xmlns="http://www.w3.org/2000/svg">
<path d="M3.33335 18.3332C2.87502 18.3332 2.48266 18.17 2.15627 17.8436C1.82988 17.5172 1.66669 17.1248 1.66669 16.6665V8.33317C1.66669 7.87484 1.82988 7.48248 2.15627 7.15609C2.48266 6.8297 2.87502 6.6665 3.33335 6.6665H16.6667C17.125 6.6665 17.5174 6.8297 17.8438 7.15609C18.1702 7.48248 18.3334 7.87484 18.3334 8.33317V16.6665C18.3334 17.1248 18.1702 17.5172 17.8438 17.8436C17.5174 18.17 17.125 18.3332 16.6667 18.3332H3.33335ZM3.33335 16.6665H16.6667V8.33317H3.33335V16.6665ZM8.97919 15.3957L12.8125 12.854C12.9375 12.7707 13 12.6526 13 12.4998C13 12.3471 12.9375 12.229 12.8125 12.1457L8.97919 9.604C8.8403 9.50678 8.69794 9.49636 8.5521 9.57275C8.40627 9.64914 8.33335 9.77067 8.33335 9.93734V15.0623C8.33335 15.229 8.40627 15.3505 8.5521 15.4269C8.69794 15.5033 8.8403 15.4929 8.97919 15.3957ZM4.16669 5.83317C3.93058 5.83317 3.73266 5.75331 3.57294 5.59359C3.41321 5.43386 3.33335 5.23595 3.33335 4.99984C3.33335 4.76373 3.41321 4.56581 3.57294 4.40609C3.73266 4.24636 3.93058 4.1665 4.16669 4.1665H15.8334C16.0695 4.1665 16.2674 4.24636 16.4271 4.40609C16.5868 4.56581 16.6667 4.76373 16.6667 4.99984C16.6667 5.23595 16.5868 5.43386 16.4271 5.59359C16.2674 5.75331 16.0695 5.83317 15.8334 5.83317H4.16669ZM6.66669 3.33317C6.43058 3.33317 6.23266 3.25331 6.07294 3.09359C5.91321 2.93386 5.83335 2.73595 5.83335 2.49984C5.83335 2.26373 5.91321 2.06581 6.07294 1.90609C6.23266 1.74637 6.43058 1.6665 6.66669 1.6665H13.3334C13.5695 1.6665 13.7674 1.74637 13.9271 1.90609C14.0868 2.06581 14.1667 2.26373 14.1667 2.49984C14.1667 2.73595 14.0868 2.93386 13.9271 3.09359C13.7674 3.25331 13.5695 3.33317 13.3334 3.33317H6.66669Z" fill="white"/>
</svg>
