<svg width="24" height="24" viewBox="0 0 24 24" fill="none" xmlns="http://www.w3.org/2000/svg">
<path d="M15.25 11.525L18 9.925C18.1667 9.825 18.25 9.68333 18.25 9.5C18.25 9.31667 18.1667 9.175 18 9.075L15.25 7.475C15.1 7.39167 14.9333 7.35 14.75 7.35C14.5667 7.35 14.4 7.39167 14.25 7.475L11.5 9.075C11.3333 9.175 11.25 9.31667 11.25 9.5C11.25 9.68333 11.3333 9.825 11.5 9.925L14.25 11.525C14.4 11.6083 14.5667 11.65 14.75 11.65C14.9333 11.65 15.1 11.6083 15.25 11.525ZM15.25 14.55L17 13.55C17.15 13.4667 17.2708 13.3458 17.3625 13.1875C17.4542 13.0292 17.5 12.8583 17.5 12.675V11.15L15.25 12.45C15.1 12.5333 14.9333 12.575 14.75 12.575C14.5667 12.575 14.4 12.5333 14.25 12.45L12 11.15V12.675C12 12.8583 12.0458 13.0292 12.1375 13.1875C12.2292 13.3458 12.35 13.4667 12.5 13.55L14.25 14.55C14.4 14.6333 14.5667 14.675 14.75 14.675C14.9333 14.675 15.1 14.6333 15.25 14.55ZM20 20H15C15 19.6667 14.9875 19.3333 14.9625 19C14.9375 18.6667 14.9 18.3333 14.85 18H20V6H4V7.15C3.66667 7.1 3.33333 7.0625 3 7.0375C2.66667 7.0125 2.33333 7 2 7V6C2 5.45 2.19583 4.97917 2.5875 4.5875C2.97917 4.19583 3.45 4 4 4H20C20.55 4 21.0208 4.19583 21.4125 4.5875C21.8042 4.97917 22 5.45 22 6V18C22 18.55 21.8042 19.0208 21.4125 19.4125C21.0208 19.8042 20.55 20 20 20ZM8 20C7.73333 20 7.5 19.9208 7.3 19.7625C7.1 19.6042 6.975 19.3917 6.925 19.125C6.74167 18.075 6.27083 17.1833 5.5125 16.45C4.75417 15.7167 3.85 15.2583 2.8 15.075C2.55 15.0417 2.35417 14.9208 2.2125 14.7125C2.07083 14.5042 2 14.2667 2 14C2 13.7167 2.09167 13.4792 2.275 13.2875C2.45833 13.0958 2.675 13.0167 2.925 13.05C4.49167 13.25 5.82917 13.9083 6.9375 15.025C8.04583 16.1417 8.70833 17.4833 8.925 19.05C8.95833 19.3167 8.88333 19.5417 8.7 19.725C8.51667 19.9083 8.28333 20 8 20ZM12 20C11.7167 20 11.4792 19.9083 11.2875 19.725C11.0958 19.5417 10.9833 19.3083 10.95 19.025C10.7167 16.8917 9.84583 15.0833 8.3375 13.6C6.82917 12.1167 5.00833 11.2667 2.875 11.05C2.60833 11.0167 2.39583 10.9 2.2375 10.7C2.07917 10.5 2 10.2667 2 10C2 9.71667 2.0875 9.475 2.2625 9.275C2.4375 9.075 2.65 8.99167 2.9 9.025C5.58333 9.24167 7.86667 10.2875 9.75 12.1625C11.6333 14.0375 12.7 16.3083 12.95 18.975C12.9833 19.2583 12.9042 19.5 12.7125 19.7C12.5208 19.9 12.2833 20 12 20ZM3.25 20C2.9 20 2.60417 19.8792 2.3625 19.6375C2.12083 19.3958 2 19.1 2 18.75C2 18.4 2.12083 18.1042 2.3625 17.8625C2.60417 17.6208 2.9 17.5 3.25 17.5C3.6 17.5 3.89583 17.6208 4.1375 17.8625C4.37917 18.1042 4.5 18.4 4.5 18.75C4.5 19.1 4.37917 19.3958 4.1375 19.6375C3.89583 19.8792 3.6 20 3.25 20Z" fill="black"/>
</svg>
