<svg width="24" height="24" viewBox="0 0 24 24" fill="none" xmlns="http://www.w3.org/2000/svg">
<path d="M18.5 20C18.0833 20 17.7292 19.8542 17.4375 19.5625C17.1458 19.2708 17 18.9167 17 18.5V5.5C17 5.08333 17.1458 4.72917 17.4375 4.4375C17.7292 4.14583 18.0833 4 18.5 4C18.9167 4 19.2708 4.14583 19.5625 4.4375C19.8542 4.72917 20 5.08333 20 5.5V18.5C20 18.9167 19.8542 19.2708 19.5625 19.5625C19.2708 19.8542 18.9167 20 18.5 20ZM6.5 20C6.3 20 6.10833 19.9625 5.925 19.8875C5.74167 19.8125 5.57917 19.7042 5.4375 19.5625C5.29583 19.4208 5.1875 19.2583 5.1125 19.075C5.0375 18.8917 5 18.7 5 18.5V15.5C5 15.0833 5.14583 14.7292 5.4375 14.4375C5.72917 14.1458 6.08333 14 6.5 14C6.91667 14 7.27083 14.1458 7.5625 14.4375C7.85417 14.7292 8 15.0833 8 15.5V18.5C8 18.7 7.9625 18.8917 7.8875 19.075C7.8125 19.2583 7.70417 19.4208 7.5625 19.5625C7.42083 19.7042 7.25833 19.8125 7.075 19.8875C6.89167 19.9625 6.7 20 6.5 20ZM12.5 20C12.0833 20 11.7292 19.8542 11.4375 19.5625C11.1458 19.2708 11 18.9167 11 18.5V10.5C11 10.0833 11.1458 9.72917 11.4375 9.4375C11.7292 9.14583 12.0833 9 12.5 9C12.9167 9 13.2708 9.14583 13.5625 9.4375C13.8542 9.72917 14 10.0833 14 10.5V18.5C14 18.9167 13.8542 19.2708 13.5625 19.5625C13.2708 19.8542 12.9167 20 12.5 20Z" fill="black"/>
</svg>
