<svg width="118" height="25" viewBox="0 0 118 25" fill="none" xmlns="http://www.w3.org/2000/svg">
<path d="M26.728 18.8179C26.9288 18.894 27.1539 18.7931 27.2244 18.5902C27.9261 16.5713 28.1566 14.4166 27.8958 12.2917C27.6192 10.0381 26.7983 7.88555 25.504 6.01981C24.2097 4.15407 22.4807 2.63115 20.4664 1.58242C18.452 0.53369 16.2127 -0.00935784 13.9415 0.000122016C11.6704 0.00960187 9.4357 0.571325 7.43016 1.63683C5.42462 2.70234 3.70848 4.23964 2.42979 6.11612C1.15109 7.9926 0.348228 10.1519 0.0904638 12.4078C-0.152575 14.5348 0.095862 16.6874 0.81444 18.7005C0.886627 18.9027 1.11252 19.0018 1.31272 18.924L5.73509 17.2064C5.93529 17.1286 6.03363 16.9036 5.96512 16.7001C5.5688 15.523 5.43559 14.2715 5.57695 13.0344C5.73304 11.6683 6.21922 10.3607 6.99355 9.22439C7.76788 8.08807 8.8071 7.15714 10.0216 6.51191C11.236 5.86668 12.5893 5.52653 13.9646 5.52079C15.3399 5.51505 16.696 5.84389 17.9158 6.47896C19.1356 7.11403 20.1826 8.03625 20.9663 9.16606C21.7501 10.2959 22.2472 11.5994 22.4147 12.9641C22.5664 14.2 22.4437 15.4525 22.0572 16.6329C21.9904 16.837 22.0906 17.0612 22.2914 17.1373L26.728 18.8179Z" fill="url(#paint0_linear_2461_1517)"/>
<path d="M26.728 18.8179C26.9288 18.894 27.1539 18.7931 27.2244 18.5902C27.9261 16.5713 28.1566 14.4166 27.8958 12.2917C27.6192 10.0381 26.7983 7.88555 25.504 6.01981C24.2097 4.15407 22.4807 2.63115 20.4664 1.58242C18.452 0.53369 16.2127 -0.00935784 13.9415 0.000122016C11.6704 0.00960187 9.4357 0.571325 7.43016 1.63683C5.42462 2.70234 3.70848 4.23964 2.42979 6.11612C1.15109 7.9926 0.348228 10.1519 0.0904638 12.4078C-0.152575 14.5348 0.095862 16.6874 0.81444 18.7005C0.886627 18.9027 1.11252 19.0018 1.31272 18.924L5.73509 17.2064C5.93529 17.1286 6.03363 16.9036 5.96512 16.7001C5.5688 15.523 5.43559 14.2715 5.57695 13.0344C5.73304 11.6683 6.21922 10.3607 6.99355 9.22439C7.76788 8.08807 8.8071 7.15714 10.0216 6.51191C11.236 5.86668 12.5893 5.52653 13.9646 5.52079C15.3399 5.51505 16.696 5.84389 17.9158 6.47896C19.1356 7.11403 20.1826 8.03625 20.9663 9.16606C21.7501 10.2959 22.2472 11.5994 22.4147 12.9641C22.5664 14.2 22.4437 15.4525 22.0572 16.6329C21.9904 16.837 22.0906 17.0612 22.2914 17.1373L26.728 18.8179Z" fill="url(#paint1_linear_2461_1517)"/>
<path fill-rule="evenodd" clip-rule="evenodd" d="M1.79653 21.0185C1.68043 20.8188 1.77112 20.565 1.98465 20.4771L13.8025 15.6113C13.8973 15.5723 14.0037 15.5723 14.0986 15.6113L25.8477 20.4488C26.0609 20.5366 26.1517 20.7898 26.0362 20.9894C25.2615 22.3287 24.2712 23.5278 23.1128 24.5392C23.0035 24.6347 22.8494 24.6584 22.7152 24.6031L14.0986 21.0554C14.0037 21.0163 13.8973 21.0163 13.8025 21.0554L5.12801 24.6269C4.99418 24.682 4.84051 24.6586 4.73122 24.5637C3.56907 23.5545 2.57498 22.3569 1.79653 21.0185Z" fill="url(#paint2_linear_2461_1517)"/>
<path d="M37.138 17.5381C36.4847 17.5381 35.871 17.4238 35.297 17.1951C34.7277 16.9618 34.226 16.6211 33.792 16.1731C33.3627 15.7251 33.0267 15.1768 32.784 14.5281C32.5413 13.8748 32.42 13.1281 32.42 12.2881C32.42 11.1868 32.6253 10.2465 33.036 9.46712C33.4467 8.68312 34.009 8.08346 34.723 7.66812C35.437 7.24812 36.242 7.03812 37.138 7.03812C38.3793 7.03812 39.3617 7.32746 40.085 7.90612C40.813 8.48012 41.3053 9.28746 41.562 10.3281L39.84 10.6011C39.6487 10.0038 39.336 9.52779 38.902 9.17312C38.468 8.81379 37.915 8.63412 37.243 8.63412C36.5663 8.62479 36.004 8.77179 35.556 9.07512C35.108 9.37846 34.7697 9.80546 34.541 10.3561C34.317 10.9068 34.205 11.5508 34.205 12.2881C34.205 13.0255 34.317 13.6671 34.541 14.2131C34.765 14.7545 35.101 15.1768 35.549 15.4801C36.0017 15.7835 36.5663 15.9398 37.243 15.9491C37.7517 15.9538 38.1973 15.8628 38.58 15.6761C38.9627 15.4848 39.2753 15.1978 39.518 14.8151C39.7607 14.4278 39.924 13.9448 40.008 13.3661H38.23V12.0431H41.8C41.8093 12.1178 41.8163 12.2275 41.821 12.3721C41.8257 12.5168 41.828 12.6031 41.828 12.6311C41.828 13.5831 41.639 14.4301 41.261 15.1721C40.8877 15.9095 40.351 16.4881 39.651 16.9081C38.951 17.3281 38.1133 17.5381 37.138 17.5381ZM43.2339 17.3281V9.76812H44.7249V11.6091L44.5429 11.3711C44.6362 11.1191 44.7599 10.8905 44.9139 10.6851C45.0726 10.4751 45.2616 10.3025 45.4809 10.1671C45.6676 10.0411 45.8729 9.94312 46.0969 9.87312C46.3256 9.79846 46.5589 9.75412 46.7969 9.74012C47.0349 9.72146 47.2659 9.73079 47.4899 9.76812V11.3431C47.2659 11.2778 47.0069 11.2568 46.7129 11.2801C46.4236 11.3035 46.1622 11.3851 45.9289 11.5251C45.6956 11.6511 45.5042 11.8121 45.3549 12.0081C45.2102 12.2041 45.1029 12.4281 45.0329 12.6801C44.9629 12.9275 44.9279 13.1958 44.9279 13.4851V17.3281H43.2339ZM52.028 17.5381C51.272 17.5381 50.6117 17.3678 50.047 17.0271C49.4823 16.6865 49.0437 16.2175 48.731 15.6201C48.423 15.0181 48.269 14.3275 48.269 13.5481C48.269 12.7548 48.4277 12.0595 48.745 11.4621C49.0623 10.8648 49.5033 10.3981 50.068 10.0621C50.6327 9.72612 51.286 9.55812 52.028 9.55812C52.7887 9.55812 53.4513 9.72846 54.016 10.0691C54.5807 10.4098 55.0193 10.8811 55.332 11.4831C55.6447 12.0805 55.801 12.7688 55.801 13.5481C55.801 14.3321 55.6423 15.0251 55.325 15.6271C55.0123 16.2245 54.5737 16.6935 54.009 17.0341C53.4443 17.3701 52.784 17.5381 52.028 17.5381ZM52.028 15.9561C52.7 15.9561 53.1993 15.7321 53.526 15.2841C53.8527 14.8361 54.016 14.2575 54.016 13.5481C54.016 12.8155 53.8503 12.2321 53.519 11.7981C53.1877 11.3595 52.6907 11.1401 52.028 11.1401C51.5753 11.1401 51.202 11.2428 50.908 11.4481C50.6187 11.6488 50.404 11.9311 50.264 12.2951C50.124 12.6545 50.054 13.0721 50.054 13.5481C50.054 14.2808 50.2197 14.8665 50.551 15.3051C50.887 15.7391 51.3793 15.9561 52.028 15.9561ZM58.6798 17.3281L56.3698 9.75412L58.0218 9.76812L59.4988 14.6191L60.9968 9.76812H62.4178L63.9088 14.6191L65.3928 9.76812H67.0448L64.7348 17.3281H63.4188L61.7038 12.1271L59.9958 17.3281H58.6798ZM72.3681 17.5381C71.5655 17.5381 70.8585 17.3748 70.2471 17.0481C69.6405 16.7215 69.1645 16.2618 68.8191 15.6691C68.4785 15.0765 68.3081 14.3811 68.3081 13.5831V7.26212L70.0161 7.24812V13.5411C70.0161 13.9191 70.0791 14.2575 70.2051 14.5561C70.3358 14.8548 70.5108 15.1091 70.7301 15.3191C70.9495 15.5245 71.2015 15.6808 71.4861 15.7881C71.7708 15.8955 72.0648 15.9491 72.3681 15.9491C72.6808 15.9491 72.9771 15.8955 73.2571 15.7881C73.5418 15.6761 73.7938 15.5175 74.0131 15.3121C74.2325 15.1021 74.4051 14.8478 74.5311 14.5491C74.6571 14.2505 74.7201 13.9145 74.7201 13.5411V7.24812H76.4281V13.5831C76.4281 14.3811 76.2555 15.0765 75.9101 15.6691C75.5695 16.2618 75.0935 16.7215 74.4821 17.0481C73.8755 17.3748 73.1708 17.5381 72.3681 17.5381ZM82.0173 17.5381C81.28 17.5381 80.6616 17.3631 80.1623 17.0131C79.663 16.6631 79.2873 16.1871 79.0353 15.5851C78.7833 14.9785 78.6573 14.2995 78.6573 13.5481C78.6573 12.7875 78.7833 12.1061 79.0353 11.5041C79.2873 10.9021 79.656 10.4285 80.1413 10.0831C80.6313 9.73312 81.2356 9.55812 81.9543 9.55812C82.6683 9.55812 83.2866 9.73312 83.8093 10.0831C84.3366 10.4285 84.745 10.9021 85.0343 11.5041C85.3236 12.1015 85.4683 12.7828 85.4683 13.5481C85.4683 14.3041 85.326 14.9831 85.0413 15.5851C84.7566 16.1871 84.3553 16.6631 83.8373 17.0131C83.3193 17.3631 82.7126 17.5381 82.0173 17.5381ZM78.3703 20.6881V9.76812H79.8613V15.0741H80.0713V20.6881H78.3703ZM81.7583 16.0261C82.197 16.0261 82.5586 15.9165 82.8433 15.6971C83.128 15.4778 83.338 15.1815 83.4733 14.8081C83.6133 14.4301 83.6833 14.0101 83.6833 13.5481C83.6833 13.0908 83.6133 12.6755 83.4733 12.3021C83.3333 11.9241 83.1163 11.6255 82.8223 11.4061C82.5283 11.1821 82.155 11.0701 81.7023 11.0701C81.273 11.0701 80.923 11.1751 80.6523 11.3851C80.3816 11.5905 80.181 11.8798 80.0503 12.2531C79.9243 12.6218 79.8613 13.0535 79.8613 13.5481C79.8613 14.0381 79.9243 14.4698 80.0503 14.8431C80.181 15.2165 80.384 15.5081 80.6593 15.7181C80.9393 15.9235 81.3056 16.0261 81.7583 16.0261ZM89.954 17.3281V7.24812H91.641V15.7461H96.093V17.3281H89.954ZM97.2788 17.3281V7.24812H98.7978L102.284 14.3881L105.77 7.24812H107.289V17.3281H105.714V10.8671L102.62 17.3281H101.948L98.8608 10.8671V17.3281H97.2788ZM112.986 17.5381C112.249 17.5381 111.584 17.4098 110.991 17.1531C110.403 16.8965 109.918 16.5301 109.535 16.0541C109.157 15.5735 108.917 15.0041 108.814 14.3461L110.564 14.0801C110.714 14.6775 111.019 15.1395 111.481 15.4661C111.948 15.7928 112.485 15.9561 113.091 15.9561C113.451 15.9561 113.789 15.9001 114.106 15.7881C114.424 15.6761 114.68 15.5128 114.876 15.2981C115.077 15.0835 115.177 14.8198 115.177 14.5071C115.177 14.3671 115.154 14.2388 115.107 14.1221C115.061 14.0008 114.991 13.8935 114.897 13.8001C114.809 13.7068 114.692 13.6228 114.547 13.5481C114.407 13.4688 114.244 13.4011 114.057 13.3451L111.453 12.5751C111.229 12.5098 110.987 12.4235 110.725 12.3161C110.469 12.2041 110.224 12.0525 109.99 11.8611C109.762 11.6651 109.573 11.4178 109.423 11.1191C109.279 10.8158 109.206 10.4425 109.206 9.99912C109.206 9.35046 109.37 8.80679 109.696 8.36812C110.028 7.92479 110.471 7.59346 111.026 7.37412C111.586 7.15479 112.207 7.04746 112.888 7.05212C113.579 7.05679 114.195 7.17579 114.736 7.40912C115.278 7.63779 115.73 7.97146 116.094 8.41012C116.458 8.84879 116.715 9.37846 116.864 9.99912L115.051 10.3141C114.977 9.95946 114.832 9.65846 114.617 9.41112C114.407 9.15912 114.148 8.96779 113.84 8.83712C113.537 8.70646 113.213 8.63646 112.867 8.62712C112.531 8.62246 112.219 8.67379 111.929 8.78112C111.645 8.88379 111.414 9.03312 111.236 9.22912C111.064 9.42512 110.977 9.65379 110.977 9.91512C110.977 10.1625 111.052 10.3655 111.201 10.5241C111.351 10.6781 111.535 10.8018 111.754 10.8951C111.978 10.9838 112.205 11.0585 112.433 11.1191L114.239 11.6231C114.487 11.6885 114.764 11.7771 115.072 11.8891C115.38 12.0011 115.677 12.1575 115.961 12.3581C116.246 12.5588 116.479 12.8225 116.661 13.1491C116.848 13.4758 116.941 13.8911 116.941 14.3951C116.941 14.9178 116.832 15.3775 116.612 15.7741C116.398 16.1661 116.106 16.4928 115.737 16.7541C115.369 17.0155 114.946 17.2115 114.47 17.3421C113.999 17.4728 113.504 17.5381 112.986 17.5381Z" fill="#293253"/>
<defs>
<linearGradient id="paint0_linear_2461_1517" x1="28.4375" y1="14.996" x2="2.07939" y2="11.4632" gradientUnits="userSpaceOnUse">
<stop stop-color="#0A7EFB"/>
<stop offset="0.679244" stop-color="#8A5FEE"/>
<stop offset="1" stop-color="#E05EC8"/>
</linearGradient>
<linearGradient id="paint1_linear_2461_1517" x1="0.4375" y1="19.4949" x2="32.2979" y2="7.62333" gradientUnits="userSpaceOnUse">
<stop stop-color="#0B8BFB"/>
<stop offset="0.56009" stop-color="#FF5496"/>
<stop offset="1" stop-color="#FFBB33"/>
</linearGradient>
<linearGradient id="paint2_linear_2461_1517" x1="3.88594" y1="24.999" x2="35.3829" y2="18.0024" gradientUnits="userSpaceOnUse">
<stop stop-color="#0B8BFB"/>
<stop offset="0.530839" stop-color="#FF5496"/>
<stop offset="1" stop-color="#FFBB33"/>
</linearGradient>
</defs>
</svg>
